<svg version="1.1" xmlns="http://www.w3.org/2000/svg" xmlns:xlink="http://www.w3.org/1999/xlink" width="340.10847" height="247.66159" viewBox="0,0,340.10847,247.66159"><g transform="translate(-81.58099,-61.82288)"><g data-paper-data="{&quot;isPaintingLayer&quot;:true}" stroke="none" stroke-width="1" stroke-linecap="butt" stroke-linejoin="miter" stroke-miterlimit="10" stroke-dasharray="" stroke-dashoffset="0" style="mix-blend-mode: normal"><g fill-rule="nonzero"><path d="M366.93531,119.37515c-4.74184,5.61916 -9.3284,14.43381 -8.47622,20.82846l-5.69248,0.71133c-1.0207,-7.65599 3.46737,-17.02797 8.54251,-23.58396c-0.22536,-0.15767 -0.45449,-0.30984 -0.67606,-0.48767c-16.5169,-13.19632 6.21136,-37.11761 19.33852,-18.73481c6.63176,9.29315 -3.13408,21.98896 -13.03627,21.26663zM377.88091,105.95884c0,-0.15949 0.0019,-0.31716 -0.00568,-0.48216c-0.01515,-0.27866 -0.04545,-0.5665 -0.07953,-0.85617c-0.01515,-0.143 -0.02461,-0.28233 -0.04734,-0.43084c-0.06818,-0.44366 -0.15339,-0.8965 -0.2708,-1.36583c-1.95241,-7.84299 -12.28636,-10.94682 -16.68165,-3.311c-1.05101,1.81499 -1.43542,3.54016 -1.13243,5.74016c0.06628,0.47849 0.15718,0.935 0.26322,1.375c0.0322,0.13384 0.07196,0.26033 0.10794,0.3905c0.08332,0.30067 0.16854,0.59584 0.26701,0.87817c0.04924,0.1375 0.10416,0.27133 0.15718,0.40517c0.10226,0.264 0.2102,0.51883 0.32762,0.76633c0.06059,0.11917 0.1193,0.23833 0.17991,0.35383c0.13256,0.25117 0.2708,0.49316 0.41662,0.72599c0.05681,0.08983 0.11363,0.1815 0.17232,0.2695c0.17991,0.26584 0.36738,0.517 0.56433,0.75717c0.03408,0.04216 0.06628,0.08799 0.10226,0.12833c2.47128,2.91683 6.21324,3.85366 9.42497,3.04149c0.04734,-0.011 0.09657,-0.0275 0.14392,-0.04034c0.25187,-0.06967 0.50372,-0.14851 0.74991,-0.23833c0.07006,-0.02567 0.13824,-0.05316 0.2083,-0.08066c0.22156,-0.08983 0.44123,-0.18516 0.65333,-0.29333c0.07765,-0.03667 0.1515,-0.07517 0.22724,-0.1155c0.20263,-0.10817 0.39958,-0.22734 0.59273,-0.35383c0.07385,-0.0495 0.14771,-0.09533 0.21967,-0.14484c0.19505,-0.13566 0.37874,-0.28233 0.56053,-0.4345c0.06249,-0.05134 0.12688,-0.099 0.18558,-0.15217c0.2083,-0.18334 0.40336,-0.38134 0.59084,-0.5885c0.02651,-0.02934 0.05492,-0.05316 0.08143,-0.0825c0.21399,-0.24383 0.41283,-0.50234 0.59841,-0.7755c0.02651,-0.0385 0.04734,-0.0825 0.07385,-0.121c0.14771,-0.23101 0.29163,-0.46933 0.41851,-0.7205c0.04924,-0.099 0.09279,-0.20534 0.13824,-0.30617c0.09279,-0.20167 0.18179,-0.40699 0.25944,-0.6215c0.04545,-0.12466 0.08332,-0.25666 0.12309,-0.385c0.06249,-0.20716 0.12309,-0.41433 0.17232,-0.62883c0.0322,-0.143 0.06059,-0.28784 0.0871,-0.4345c0.03977,-0.21817 0.07006,-0.44 0.09469,-0.66916c0.01515,-0.154 0.0322,-0.30984 0.04167,-0.46751c0.01515,-0.23833 0.01704,-0.48216 0.01326,-0.7315z" fill="#000000"/><path d="M377.87903,105.47851c0.00757,0.165 0.00568,0.32267 0.00568,0.48216c0.0019,0.2475 0,0.49133 -0.01515,0.72966c-0.00757,0.15767 -0.02461,0.31349 -0.04167,0.46751c-0.02461,0.22734 -0.05492,0.451 -0.09469,0.66916c-0.02651,0.14667 -0.05492,0.2915 -0.0871,0.4345c-0.05114,0.2145 -0.10983,0.4235 -0.17232,0.62883c-0.03977,0.12833 -0.07765,0.26033 -0.12309,0.385c-0.07765,0.2145 -0.16665,0.41983 -0.25944,0.6215c-0.04545,0.10266 -0.089,0.20716 -0.13824,0.30617c-0.12877,0.25117 -0.2708,0.48949 -0.41851,0.7205c-0.02651,0.0385 -0.04734,0.0825 -0.07385,0.121c-0.18369,0.27317 -0.38442,0.53167 -0.59841,0.7755c-0.02651,0.02934 -0.05302,0.05316 -0.08143,0.0825c-0.18748,0.20716 -0.38442,0.40333 -0.59084,0.5885c-0.06059,0.05316 -0.12498,0.10083 -0.18558,0.15217c-0.18179,0.15217 -0.36548,0.29884 -0.56053,0.4345c-0.07196,0.05134 -0.14581,0.09717 -0.21967,0.14484c-0.19126,0.12466 -0.39011,0.24383 -0.59273,0.35383c-0.07575,0.0385 -0.1515,0.07701 -0.22724,0.1155c-0.21399,0.10633 -0.43176,0.2035 -0.65333,0.29333c-0.07006,0.02567 -0.13824,0.055 -0.2083,0.08066c-0.24428,0.08983 -0.49615,0.16867 -0.74991,0.23833c-0.04734,0.011 -0.09657,0.0275 -0.14392,0.04034c-3.21362,0.814 -6.95368,-0.12466 -9.42497,-3.04149c-0.03598,-0.04216 -0.06818,-0.08617 -0.10226,-0.12833c-0.19695,-0.24017 -0.38442,-0.49133 -0.56433,-0.75717c-0.05871,-0.08617 -0.11551,-0.17783 -0.17232,-0.2695c-0.14581,-0.23101 -0.28595,-0.473 -0.41662,-0.72599c-0.06249,-0.1155 -0.12309,-0.23467 -0.17991,-0.35383c-0.11741,-0.2475 -0.22536,-0.50234 -0.32762,-0.76633c-0.05302,-0.13384 -0.10794,-0.26584 -0.15718,-0.40517c-0.09847,-0.28233 -0.18369,-0.5775 -0.26701,-0.87817c-0.03598,-0.13017 -0.07575,-0.25483 -0.10794,-0.3905c-0.10604,-0.44 -0.19695,-0.8965 -0.26322,-1.375c-0.30299,-2.2 0.08143,-3.92516 1.13243,-5.74016c4.39718,-7.63583 14.73113,-4.53199 16.68165,3.311c0.11741,0.46933 0.20452,0.924 0.2708,1.36583c0.02083,0.14667 0.0303,0.286 0.04734,0.43084c0.03408,0.2915 0.06439,0.57933 0.08143,0.858z" fill="#ffffff"/><path d="M363.51906,99.68885c0,-2.77126 2.32054,-5.01782 5.18307,-5.01782c2.86253,0 5.18307,2.24656 5.18307,5.01782c0,2.77126 -2.32054,5.01782 -5.18307,5.01782c-2.86253,0 -5.18307,-2.24656 -5.18307,-5.01782z" fill="#000000"/></g><g fill-rule="nonzero"><path d="M283.37968,122.78086l-2.74058,3.31712c-6.99624,-3.21555 -11.54662,-11.12521 -12.95138,-17.0626c-3.56964,-0.03343 -7.28407,-1.44899 -10.2901,-4.94868c-6.97382,-8.11794 8.31136,-19.20715 18.20157,-12.67191c8.80432,5.8191 4.47628,14.02448 -2.82676,16.72702c1.13587,5.10039 5.10368,12.10878 10.60724,14.63904zM268.18413,106.15026l3.10599,-0.10285c1.74949,-0.35099 3.39211,-1.20728 4.61244,-2.71413c1.01178,-1.24714 1.42028,-2.4467 1.21344,-3.99597c-1.30651,-9.89993 -18.98583,-8.59879 -16.28145,1.28056c0.82907,3.0227 3.9747,5.10425 7.34958,5.53239z" fill="#000000"/><path d="M277.11599,99.33602c0.20683,1.54928 -0.20167,2.74884 -1.21344,3.99597c-4.25048,5.24696 -13.54948,2.82727 -15.06801,-2.71541c-2.70439,-9.87807 14.97666,-11.1792 16.28145,-1.28056z" fill="#ffffff"/><path d="M264.21632,95.86461c0,-1.94419 2.1129,-3.52026 4.71932,-3.52026c2.60641,0 4.71932,1.57607 4.71932,3.52026c0,1.94419 -2.1129,3.52026 -4.71932,3.52026c-2.60641,0 -4.71932,-1.57607 -4.71932,-3.52026z" fill="#000000"/></g><g fill-rule="nonzero"><path d="M284.17489,224.00163c-0.18447,0.18447 -0.55341,0.36894 -0.8301,0.73789c-0.18447,0.18447 -0.36894,0.36894 -0.55341,0.55341c-0.18447,0.18447 -0.36894,0.36894 -0.46117,0.64563c-0.09223,0.09223 -0.09223,0.27669 -0.18447,0.36894c0,0.09223 -0.09223,0.27669 -0.09223,0.36894c-0.09223,0.27669 0,0.46117 0.09223,0.73789c0.18447,0.27669 0.36894,0.46117 0.55341,0.64563c0.27669,0.18447 0.46117,0.27669 0.73789,0.46117c0.27669,0.09223 0.46117,0.27669 0.73789,0.36894c0.27669,0.09223 0.55341,0.18447 0.73789,0.27669c0.46117,0.09223 0.8301,0.18447 1.1068,0.27669c0.27669,0.09223 0.46117,0.09223 0.46117,0.09223c0,0 -0.18447,0 -0.46117,0c-0.27669,0 -0.73789,0 -1.19904,-0.09223c-0.18447,0 -0.46117,-0.09223 -0.73789,-0.18447c-0.27669,-0.09223 -0.55341,-0.18447 -0.8301,-0.36894c-0.27669,-0.18447 -0.55341,-0.27669 -0.8301,-0.55341c-0.27669,-0.18447 -0.46117,-0.46117 -0.64563,-0.8301c-0.18447,-0.36894 -0.18447,-0.73789 -0.18447,-1.1068c0.09223,-0.18447 0.09223,-0.36894 0.18447,-0.55341c0.09223,-0.18447 0.18447,-0.27669 0.27669,-0.46117c0.09223,-0.36894 0.36894,-0.55341 0.55341,-0.73789c0.18447,-0.18447 0.46117,-0.27669 0.64563,-0.46117c0.36894,-0.36894 0.73789,-0.46117 1.01458,-0.64563c0.18447,-0.09223 0.36894,-0.18447 0.36894,-0.18447c0,0 -0.18447,0.09223 -0.46117,0.64563z" fill="#423118"/><path d="M278.91755,229.6279c-1.01458,0.55341 -2.30585,1.19904 -3.59712,1.84468c-1.38352,0.64563 -2.76701,1.29127 -4.24276,1.9369c-1.38352,0.64563 -2.95148,1.19904 -4.335,1.56799c-1.47575,0.36894 -2.85926,0.64563 -4.05828,0.55341c-0.64563,0 -1.19904,-0.18447 -1.56799,-0.55341c-0.36894,-0.36894 -0.46117,-0.8301 -0.46117,-1.19904c0,-0.36894 0.09223,-0.64563 0.09223,-0.8301c0.09223,-0.18447 0.09223,-0.27669 0.09223,-0.27669c0,0 0,0.09223 0,0.27669c0,0.09223 0,0.36894 0,0.73789c0,0.27669 0.18447,0.73789 0.46117,1.01458c0.27669,0.36894 0.8301,0.46117 1.38352,0.46117c0.55341,0 1.19904,0 1.84468,-0.18447c0.64563,-0.18447 1.29127,-0.36894 2.02915,-0.55341c1.47575,-0.36894 2.85926,-0.92234 4.335,-1.56799c1.47575,-0.64563 2.95148,-1.19904 4.24276,-1.84468c1.29127,-0.55341 2.58255,-1.1068 3.59712,-1.66021c2.12138,-1.01458 3.50489,-1.66021 3.50489,-1.66021c0,0 -1.38352,0.8301 -3.32042,1.9369z" fill="#423118"/><path d="M259.45621,234.97748c-0.73789,0.27669 -1.75244,0.64563 -2.95148,1.1068c-1.19904,0.46117 -2.67479,0.92234 -4.24276,1.38352c-1.56799,0.36894 -3.22818,0.8301 -4.98064,1.01458c-0.8301,0.09223 -1.75244,0.18447 -2.58255,0.09223c-0.8301,-0.09223 -1.75244,-0.18447 -2.49031,-0.8301c-0.36894,-0.27669 -0.55341,-0.73789 -0.64563,-1.1068c-0.09223,-0.09223 -0.18447,-0.36894 -0.18447,-0.55341c-0.09223,-0.27669 -0.09223,-0.46117 -0.09223,-0.64563c0,-0.73789 0.36894,-1.47575 0.73789,-2.02915c0.8301,-1.1068 1.84468,-1.66021 2.49031,-2.02915c0.73789,-0.36894 1.1068,-0.46117 1.1068,-0.46117c0,0 -0.36894,0.18447 -1.01458,0.55341c-0.64563,0.46117 -1.47575,1.1068 -2.21362,2.12138c-0.36894,0.46117 -0.55341,1.19904 -0.55341,1.84468c0,0.18447 0.09223,0.36894 0.09223,0.55341c0.09223,0.18447 0.09223,0.36894 0.18447,0.55341c0.18447,0.36894 0.27669,0.73789 0.55341,0.92234c0.55341,0.46117 1.38352,0.55341 2.21362,0.64563c0.8301,0.09223 1.66021,0 2.49031,-0.09223c1.75244,-0.18447 3.41265,-0.55341 4.98064,-0.92234c1.56799,-0.46117 3.04373,-0.8301 4.24276,-1.19904c2.49031,-0.73789 4.15052,-1.29127 4.15052,-1.29127c0,0 -0.36894,0.18447 -1.29127,0.36894z" fill="#423118"/><path d="M249.12599,230.27353c-0.55341,0.18447 -1.38352,0.46117 -2.39807,0.64563c-0.92234,0.18447 -2.12138,0.46117 -3.41265,0.55341c-0.64563,0.09223 -1.29127,0.09223 -2.02915,0c-0.27669,-0.09223 -0.64563,-0.09223 -1.01458,-0.27669c-0.18447,-0.09223 -0.36894,-0.18447 -0.55341,-0.36894c0,-0.09223 -0.09223,-0.18447 -0.18447,-0.27669c0,-0.09223 -0.09223,-0.18447 -0.09223,-0.27669c-0.18447,-0.73789 0.09223,-1.47575 0.36894,-2.12138c0.36894,-0.64563 0.8301,-1.1068 1.29127,-1.56799c1.01458,-0.92234 2.12138,-1.38352 3.04373,-1.75244c1.01458,-0.36894 1.84468,-0.55341 2.39807,-0.64563c0.55341,-0.18447 0.92234,-0.18447 0.92234,-0.18447c0,0 -0.36894,0.09223 -0.92234,0.27669c-0.55341,0.18447 -1.38352,0.46117 -2.30585,0.8301c-0.92234,0.46117 -1.9369,1.01458 -2.85926,1.84468c-0.46117,0.36894 -0.8301,0.92234 -1.1068,1.47575c-0.27669,0.55341 -0.46117,1.19904 -0.27669,1.75244c0.18447,0.55341 0.8301,0.64563 1.47575,0.73789c0.64563,0 1.29127,0 1.9369,0c1.19904,-0.09223 2.39807,-0.18447 3.41265,-0.36894c1.9369,-0.27669 3.32042,-0.55341 3.32042,-0.55341c0,0 -0.36894,0.09223 -1.01458,0.27669z" fill="#423118"/><path d="M241.74727,225.38514c-0.36894,-0.27669 -0.92234,-0.8301 -1.19904,-1.66021c-0.18447,-0.36894 -0.27669,-0.8301 -0.18447,-1.38352c0,-0.46117 0.27669,-1.01458 0.55341,-1.47575c0.27669,-0.36894 0.64563,-0.8301 1.1068,-1.19904c0.46117,-0.36894 0.92234,-0.73789 1.38352,-1.01458c0.46117,-0.36894 0.92234,-0.55341 1.47575,-0.8301c0.46117,-0.27669 1.01458,-0.46117 1.47575,-0.64563c0.55341,-0.18447 1.01458,-0.36894 1.47575,-0.46117c0.46117,-0.09223 0.92234,-0.27669 1.29127,-0.36894c0.8301,-0.18447 1.56799,-0.36894 2.02915,-0.46117c0.46117,-0.09223 0.73789,-0.18447 0.73789,-0.18447c0,0 -1.1068,0.36894 -2.67479,0.92234c-0.46117,0.09223 -0.8301,0.27669 -1.29127,0.46117c-0.46117,0.18447 -0.92234,0.36894 -1.38352,0.55341c-0.46117,0.18447 -1.01458,0.36894 -1.47575,0.64563c-0.55341,0.27669 -1.01458,0.55341 -1.47575,0.8301c-0.55341,0.27669 -1.01458,0.55341 -1.38352,0.92234c-0.46117,0.27669 -0.8301,0.73789 -1.1068,1.1068c-0.27669,0.46117 -0.46117,0.8301 -0.55341,1.29127c-0.09223,0.46117 -0.09223,0.92234 0,1.29127c0.18447,0.8301 0.64563,1.38352 0.92234,1.75244c0.36894,0.36894 0.55341,0.55341 0.55341,0.55341c0,0 -0.18447,-0.18447 -0.27669,-0.64563z" fill="#423118"/><path d="M289.33999,222.80257c-0.46117,0.27669 -1.01458,0.55341 -1.66021,0.73789c-0.64563,0.18447 -1.29127,0.46117 -2.02915,0.46117c-0.36894,0 -0.8301,-0.09223 -1.1068,-0.46117c-0.27669,-0.27669 -0.36894,-0.73789 -0.27669,-1.1068c0.18447,-0.73789 0.55341,-1.29127 0.92234,-1.66021c0.36894,-0.46117 0.73789,-0.73789 0.92234,-0.92234c0.18447,-0.18447 0.36894,-0.27669 0.36894,-0.27669c0,0 -0.09223,0.09223 -0.27669,0.36894c-0.18447,0.27669 -0.46117,0.55341 -0.73789,1.01458c-0.27669,0.36894 -0.55341,0.92234 -0.64563,1.47575c0,0.27669 0,0.55341 0.18447,0.73789c0.18447,0.18447 0.46117,0.27669 0.73789,0.27669c0.55341,0 1.19904,-0.18447 1.84468,-0.36894c0.64563,-0.18447 1.19904,-0.36894 1.66021,-0.55341c1.01458,-0.36894 1.66021,-0.55341 1.66021,-0.55341c0,0 -0.55341,0.36894 -1.56799,0.8301z" fill="#52391e"/><path d="M290.81574,230.36576c-3.96606,15.95647 -17.15551,33.01974 -28.50028,40.21399c-11.34477,7.19424 -15.40307,24.90316 -15.40307,24.90316c0,0 5.07286,6.08744 4.05828,8.11659c-2.30585,4.51947 -12.17488,1.84468 -14.84967,-1.75244c-2.67479,-3.59712 -1.84468,-36.1557 3.59712,-40.21399c5.4418,-4.05828 10.88361,-5.4418 9.50009,-15.86424c-1.38352,-10.42244 -2.76701,-33.48091 7.00979,-36.61687c9.68455,-3.22818 40.4907,-2.76701 34.58773,21.21381z" fill="#694929"/><path d="M287.2186,240.14256c-0.8301,1.75244 -2.02915,4.42723 -3.68937,7.37871c-1.66021,3.04373 -3.78159,6.45638 -6.36413,9.86903c-1.38352,1.75244 -2.76701,3.41265 -4.335,5.07286c-0.73789,0.8301 -1.56799,1.56799 -2.49031,2.30585c-0.92234,0.73789 -1.84468,1.38352 -2.76701,2.02915c-1.84468,1.29127 -3.68937,2.67479 -5.4418,4.05828c-1.66021,1.38352 -3.41265,2.76701 -4.88839,4.335c-1.47575,1.47575 -2.76701,3.04373 -3.87383,4.70394c-1.1068,1.56799 -2.02915,3.22818 -2.67479,4.79617c-0.73789,1.56799 -1.29127,3.04373 -1.75244,4.335c-0.46117,1.29127 -0.8301,2.49031 -1.1068,3.41265c-0.55341,1.9369 -0.92234,3.04373 -0.92234,3.04373c0,0 0.27669,-1.1068 0.8301,-3.04373c0.27669,-0.92234 0.55341,-2.12138 1.01458,-3.41265c0.46117,-1.38352 1.01458,-2.85926 1.66021,-4.42723c0.64563,-1.56799 1.56799,-3.22818 2.58255,-4.88839c1.01458,-1.66021 2.39807,-3.22818 3.87383,-4.79617c1.56799,-1.56799 3.22818,-2.95148 4.98064,-4.42723c1.75244,-1.38352 3.59712,-2.76701 5.4418,-4.15052c0.92234,-0.64563 1.9369,-1.29127 2.76701,-2.02915c0.92234,-0.73789 1.66021,-1.47575 2.49031,-2.30585c1.56799,-1.56799 2.95148,-3.32042 4.24276,-4.98064c2.58255,-3.32042 4.70394,-6.73307 6.45638,-9.68455c1.66021,-2.95148 3.04373,-5.4418 3.87383,-7.28648c0.8301,-1.75244 1.29127,-2.85926 1.29127,-2.85926c0,0 -0.36894,1.1068 -1.19904,2.95148z" fill="#423118"/><path d="M248.75705,301.84708c0.27669,0.27669 0.55341,0.64563 0.8301,1.1068c0.18447,0.46117 0.36894,1.01458 0.36894,1.38352c0,0.36894 -0.09223,0.64563 -0.09223,0.64563c0,0 -0.09223,-0.09223 -0.09223,-0.18447c0,-0.18447 -0.09223,-0.27669 -0.18447,-0.46117c-0.18447,-0.36894 -0.36894,-0.73789 -0.64563,-1.19904c-0.27669,-0.36894 -0.46117,-0.8301 -0.64563,-1.19904c-0.18447,-0.27669 -0.27669,-0.55341 -0.27669,-0.55341c0,0 0.27669,0.18447 0.73789,0.46117z" fill="#423118"/><path d="M244.97546,303.23057c0.27669,0.27669 0.55341,0.64563 0.73789,1.01458c0.18447,0.36894 0.27669,0.8301 0.27669,1.19904c0,0.36894 -0.09223,0.55341 -0.09223,0.55341c0,0 -0.09223,-0.09223 -0.09223,-0.18447c-0.09223,-0.09223 -0.09223,-0.18447 -0.18447,-0.36894c-0.09223,-0.27669 -0.27669,-0.64563 -0.46117,-1.01458c-0.18447,-0.46117 -0.36894,-0.8301 -0.46117,-1.1068c-0.09223,-0.36894 -0.18447,-0.55341 -0.18447,-0.55341c0,0 0.18447,0.09223 0.46117,0.46117z" fill="#423118"/><path d="M236.02876,271.59434c0.09223,-0.36894 0.09223,-0.92234 0.18447,-1.56799c0.09223,-0.64563 0.18447,-1.47575 0.46117,-2.39807c0.27669,-0.92234 0.55341,-1.9369 1.1068,-2.95148c0.46117,-1.1068 1.19904,-2.21362 2.12138,-3.13596c0.18447,-0.27669 0.46117,-0.55341 0.73789,-0.73789c0.27669,-0.27669 0.55341,-0.46117 0.8301,-0.64563c0.64563,-0.36894 1.29127,-0.64563 1.9369,-1.01458c1.19904,-0.64563 2.39807,-1.56799 3.32042,-2.67479c0.92234,-1.1068 1.56799,-2.49031 1.9369,-3.96606c0.36894,-1.38352 0.46117,-2.95148 0.36894,-4.42723c0,-1.47575 -0.36894,-2.95148 -0.46117,-4.42723c-0.27669,-2.95148 -0.36894,-5.62627 -0.46117,-7.93212c-0.09223,-2.39807 0,-4.24276 0,-5.62627c0.09223,-1.38352 0.09223,-2.12138 0.09223,-2.12138c0,0 0,0.73789 0,2.12138c0.09223,1.29127 0.18447,3.22818 0.27669,5.53403c0.09223,2.30585 0.27669,4.98064 0.64563,7.83989c0.18447,1.38352 0.46117,2.85926 0.55341,4.42723c0.09223,1.47575 0,3.04373 -0.36894,4.61169c-0.36894,1.47575 -1.1068,2.95148 -2.12138,4.15052c-1.01458,1.1068 -2.30585,2.02915 -3.59712,2.76701c-0.64563,0.27669 -1.29127,0.64563 -1.84468,0.92234c-0.27669,0.18447 -0.55341,0.36894 -0.8301,0.55341c-0.27669,0.18447 -0.46117,0.46117 -0.73789,0.64563c-0.92234,0.92234 -1.56799,1.9369 -2.12138,2.95148c-1.01458,2.02915 -1.47575,3.96606 -1.75244,5.25733c-0.09223,0.64563 -0.18447,1.19904 -0.18447,1.56799c0,0.36894 0,0.55341 0,0.55341c0,0 0,-0.18447 -0.09223,-0.27669z" fill="#423118"/><path d="M243.77643,265.69138c-0.36894,0.46117 -0.73789,1.1068 -1.1068,1.75244c-0.18447,0.36894 -0.36894,0.64563 -0.46117,1.01458c-0.09223,0.36894 -0.18447,0.64563 -0.27669,0.92234c-0.09223,0.27669 -0.18447,0.46117 -0.18447,0.64563c-0.09223,0.18447 -0.09223,0.27669 -0.09223,0.27669c0,0 0,-0.09223 0,-0.27669c-0.09223,-0.18447 -0.09223,-0.46117 -0.09223,-0.73789c0,-0.09223 0,-0.27669 0,-0.46117c0,-0.18447 0,-0.36894 0.09223,-0.55341c0.09223,-0.18447 0.09223,-0.36894 0.18447,-0.55341c0.09223,-0.18447 0.18447,-0.36894 0.27669,-0.55341c0.36894,-0.73789 0.92234,-1.38352 1.38352,-1.75244c0.46117,-0.36894 0.8301,-0.55341 0.8301,-0.55341c0,0 -0.27669,0.36894 -0.55341,0.8301z" fill="#423118"/><path d="M269.97086,233.87065c-3.96606,15.95647 -17.15551,33.01974 -28.50028,40.21399c-11.34477,7.19424 -15.40307,24.90316 -15.40307,24.90316c0,0 5.07286,6.08744 4.05828,8.11659c-2.30585,4.51947 -12.17488,1.84468 -14.84967,-1.75244c-2.67479,-3.59712 -1.84468,-36.1557 3.59712,-40.21399c5.4418,-4.05828 10.88361,-5.4418 9.50009,-15.86424c-1.38352,-10.42244 -2.76701,-33.48091 7.00979,-36.61687c9.68455,-3.22818 40.4907,-2.76701 34.58773,21.21381z" fill="#704e2c"/><path d="M266.37374,243.64745c-0.8301,1.75244 -2.02915,4.42723 -3.68937,7.37871c-1.66021,3.04373 -3.78159,6.45638 -6.36413,9.86903c-1.38352,1.75244 -2.76701,3.41265 -4.335,5.07286c-0.73789,0.8301 -1.56799,1.56799 -2.49031,2.30585c-0.92234,0.73789 -1.84468,1.38352 -2.76701,2.02915c-1.84468,1.29127 -3.68937,2.67479 -5.4418,4.05828c-1.66021,1.38352 -3.41265,2.76701 -4.88839,4.335c-1.47575,1.47575 -2.76701,3.04373 -3.87383,4.70394c-1.1068,1.56799 -2.02915,3.22818 -2.67479,4.79617c-0.73789,1.56799 -1.29127,3.04373 -1.75244,4.335c-0.46117,1.29127 -0.8301,2.49031 -1.1068,3.41265c-0.55341,1.9369 -0.92234,3.04373 -0.92234,3.04373c0,0 0.27669,-1.1068 0.8301,-3.04373c0.27669,-0.92234 0.55341,-2.12138 1.01458,-3.41265c0.46117,-1.38352 1.01458,-2.85926 1.66021,-4.42723c0.64563,-1.56799 1.56799,-3.22818 2.58255,-4.88839c1.01458,-1.66021 2.39807,-3.22818 3.87383,-4.79617c1.56799,-1.56799 3.22818,-2.95148 4.98064,-4.42723c1.75244,-1.38352 3.59712,-2.76701 5.4418,-4.15052c0.92234,-0.64563 1.9369,-1.29127 2.76701,-2.02915c0.92234,-0.73789 1.66021,-1.47575 2.49031,-2.30585c1.56799,-1.56799 2.95148,-3.32042 4.24276,-4.98064c2.58255,-3.32042 4.70394,-6.73307 6.45638,-9.68455c1.66021,-2.95148 3.04373,-5.4418 3.87383,-7.28648c0.8301,-1.75244 1.29127,-2.85926 1.29127,-2.85926c0,0 -0.36894,1.1068 -1.19904,2.95148z" fill="#423118"/><path d="M278.54862,235.16193c-0.18447,0.18447 -0.55341,0.36894 -0.8301,0.73789c-0.18447,0.18447 -0.36894,0.36894 -0.55341,0.55341c-0.18447,0.18447 -0.36894,0.36894 -0.46117,0.64563c-0.09223,0.09223 -0.09223,0.27669 -0.18447,0.36894c0,0.09223 -0.09223,0.27669 -0.09223,0.36894c-0.09223,0.27669 0,0.46117 0.09223,0.73789c0.18447,0.27669 0.36894,0.46117 0.55341,0.64563c0.27669,0.18447 0.46117,0.27669 0.73789,0.46117c0.27669,0.09223 0.46117,0.27669 0.73789,0.36894c0.27669,0.09223 0.55341,0.18447 0.73789,0.27669c0.46117,0.09223 0.8301,0.18447 1.1068,0.27669c0.27669,0.09223 0.46117,0.09223 0.46117,0.09223c0,0 -0.18447,0 -0.46117,0c-0.27669,0 -0.73789,0 -1.19904,-0.09223c-0.18447,0 -0.46117,-0.09223 -0.73789,-0.18447c-0.27669,-0.09223 -0.55341,-0.18447 -0.8301,-0.36894c-0.27669,-0.18447 -0.55341,-0.27669 -0.8301,-0.55341c-0.27669,-0.18447 -0.46117,-0.46117 -0.64563,-0.8301c-0.18447,-0.36894 -0.18447,-0.73789 -0.18447,-1.1068c0.09223,-0.18447 0.09223,-0.36894 0.18447,-0.55341c0.09223,-0.18447 0.18447,-0.27669 0.27669,-0.46117c0.09223,-0.36894 0.36894,-0.55341 0.55341,-0.73789c0.18447,-0.18447 0.46117,-0.27669 0.64563,-0.46117c0.36894,-0.36894 0.73789,-0.46117 1.01458,-0.64563c0.18447,-0.09223 0.36894,-0.18447 0.36894,-0.18447c0,0 -0.09223,0.09223 -0.46117,0.64563z" fill="#423118"/><path d="M273.29128,240.69597c-1.01458,0.55341 -2.30585,1.19904 -3.59712,1.84468c-1.38352,0.64563 -2.76701,1.29127 -4.24276,1.9369c-1.38352,0.64563 -2.95148,1.19904 -4.335,1.56799c-1.47575,0.36894 -2.85926,0.64563 -4.05828,0.55341c-0.64563,0 -1.19904,-0.18447 -1.56799,-0.55341c-0.36894,-0.36894 -0.46117,-0.8301 -0.46117,-1.19904c0,-0.36894 0.09223,-0.64563 0.09223,-0.8301c0.09223,-0.18447 0.09223,-0.27669 0.09223,-0.27669c0,0 0,0.09223 0,0.27669c0,0.09223 0,0.36894 0,0.73789c0,0.27669 0.18447,0.73789 0.46117,1.01458c0.27669,0.36894 0.8301,0.46117 1.38352,0.46117c0.55341,0 1.19904,0 1.84468,-0.18447c0.64563,-0.18447 1.29127,-0.36894 2.02915,-0.55341c1.47575,-0.36894 2.85926,-0.92234 4.335,-1.56799c1.47575,-0.64563 2.95148,-1.19904 4.24276,-1.84468c1.29127,-0.55341 2.58255,-1.1068 3.59712,-1.66021c2.12138,-1.01458 3.50489,-1.66021 3.50489,-1.66021c0,0 -1.29127,0.92234 -3.32042,1.9369z" fill="#423118"/><path d="M253.92215,246.13778c-0.73789,0.27669 -1.75244,0.64563 -2.95148,1.1068c-1.19904,0.46117 -2.67479,0.92234 -4.24276,1.38352c-1.56799,0.36894 -3.22818,0.8301 -4.98064,1.01458c-0.8301,0.09223 -1.75244,0.18447 -2.58255,0.09223c-0.8301,-0.09223 -1.75244,-0.18447 -2.49031,-0.8301c-0.36894,-0.27669 -0.55341,-0.73789 -0.64563,-1.1068c-0.09223,-0.09223 -0.18447,-0.36894 -0.18447,-0.55341c-0.09223,-0.27669 -0.09223,-0.46117 -0.09223,-0.64563c0,-0.73789 0.36894,-1.47575 0.73789,-2.02915c0.8301,-1.1068 1.84468,-1.66021 2.49031,-2.02915c0.73789,-0.36894 1.1068,-0.46117 1.1068,-0.46117c0,0 -0.36894,0.18447 -1.01458,0.55341c-0.64563,0.46117 -1.47575,1.1068 -2.21362,2.12138c-0.36894,0.46117 -0.55341,1.19904 -0.55341,1.84468c0,0.18447 0.09223,0.36894 0.09223,0.55341c0.09223,0.18447 0.09223,0.36894 0.18447,0.55341c0.18447,0.36894 0.27669,0.73789 0.55341,0.92234c0.55341,0.46117 1.38352,0.55341 2.21362,0.64563c0.8301,0.09223 1.66021,0 2.49031,-0.09223c1.75244,-0.18447 3.41265,-0.55341 4.98064,-0.92234c1.56799,-0.46117 3.04373,-0.8301 4.24276,-1.19904c2.49031,-0.73789 4.15052,-1.29127 4.15052,-1.29127c0,0 -0.36894,0.18447 -1.29127,0.36894z" fill="#423118"/><path d="M264.05761,238.7834c-0.55341,0.18447 -1.38352,0.46117 -2.39807,0.64563c-0.92234,0.18447 -2.12138,0.46117 -3.41265,0.55341c-0.64563,0.09223 -1.29127,0.09223 -2.02915,0c-0.27669,-0.09223 -0.64563,-0.09223 -1.01458,-0.27669c-0.18447,-0.09223 -0.36894,-0.18447 -0.55341,-0.36894c0,-0.09223 -0.09223,-0.18447 -0.18447,-0.27669c0,-0.09223 -0.09223,-0.18447 -0.09223,-0.27669c-0.18447,-0.73789 0.09223,-1.47575 0.36894,-2.12138c0.36894,-0.64563 0.8301,-1.1068 1.29127,-1.56799c1.01458,-0.92234 2.12138,-1.38352 3.04373,-1.75244c1.01458,-0.36894 1.84468,-0.55341 2.39807,-0.64563c0.55341,-0.18447 0.92234,-0.18447 0.92234,-0.18447c0,0 -0.36894,0.09223 -0.92234,0.27669c-0.55341,0.18447 -1.38352,0.46117 -2.30585,0.8301c-0.92234,0.46117 -1.9369,1.01458 -2.85926,1.84468c-0.46117,0.36894 -0.8301,0.92234 -1.1068,1.47575c-0.27669,0.55341 -0.46117,1.19904 -0.27669,1.75244c0.18447,0.55341 0.8301,0.64563 1.47575,0.73789c0.64563,0 1.29127,0 1.9369,0c1.19904,-0.09223 2.39807,-0.18447 3.41265,-0.36894c1.9369,-0.27669 3.32042,-0.55341 3.32042,-0.55341c0,0 -0.36894,0.09223 -1.01458,0.27669z" fill="#423118"/><path d="M236.21323,236.45321c-0.36894,-0.27669 -0.92234,-0.8301 -1.19904,-1.66021c-0.18447,-0.36894 -0.27669,-0.8301 -0.18447,-1.38352c0,-0.46117 0.27669,-1.01458 0.55341,-1.47575c0.27669,-0.36894 0.64563,-0.8301 1.1068,-1.19904c0.46117,-0.36894 0.92234,-0.73789 1.38352,-1.01458c0.46117,-0.36894 0.92234,-0.55341 1.47575,-0.8301c0.46117,-0.27669 1.01458,-0.46117 1.47575,-0.64563c0.55341,-0.18447 1.01458,-0.36894 1.47575,-0.46117c0.46117,-0.09223 0.92234,-0.27669 1.29127,-0.36894c0.8301,-0.18447 1.56799,-0.36894 2.02915,-0.46117c0.46117,-0.09223 0.73789,-0.18447 0.73789,-0.18447c0,0 -1.1068,0.36894 -2.67479,0.92234c-0.46117,0.09223 -0.8301,0.27669 -1.29127,0.46117c-0.46117,0.18447 -0.92234,0.36894 -1.38352,0.55341c-0.46117,0.18447 -1.01458,0.36894 -1.47575,0.64563c-0.55341,0.27669 -1.01458,0.55341 -1.47575,0.8301c-0.55341,0.27669 -1.01458,0.55341 -1.38352,0.92234c-0.46117,0.27669 -0.8301,0.73789 -1.1068,1.1068c-0.27669,0.46117 -0.46117,0.8301 -0.55341,1.29127c-0.09223,0.46117 -0.09223,0.92234 0,1.29127c0.18447,0.8301 0.64563,1.38352 0.92234,1.75244c0.36894,0.36894 0.55341,0.55341 0.55341,0.55341c0,0 -0.18447,-0.09223 -0.27669,-0.64563z" fill="#423118"/><path d="M237.68898,229.25896c-0.09223,-0.36894 0.09223,-0.92234 0.46117,-1.47575c0.36894,-0.55341 0.92234,-1.19904 1.66021,-1.84468c0.64563,-0.64563 1.56799,-1.29127 2.49031,-1.9369c1.01458,-0.64563 2.02915,-1.38352 3.22818,-2.02915c1.19904,-0.64563 2.39807,-1.38352 3.68937,-2.02915c2.58255,-1.38352 5.4418,-2.76701 8.20882,-4.05828c2.76701,-1.29127 5.62627,-2.58255 8.30106,-3.68937c2.67479,-1.19904 5.25733,-2.21362 7.37871,-3.04373c2.12138,-0.92234 3.96606,-1.56799 5.25733,-2.02915c1.29127,-0.46117 2.02915,-0.73789 2.02915,-0.73789c0,0 -0.64563,0.27669 -1.9369,0.8301c-1.19904,0.55341 -3.04373,1.29127 -5.1651,2.21362c-2.12138,0.8301 -4.61169,1.9369 -7.28648,3.13596c-2.67479,1.19904 -5.53403,2.49031 -8.30106,3.78159c-2.85926,1.29127 -5.62627,2.67479 -8.20882,3.96606c-1.29127,0.64563 -2.58255,1.29127 -3.68937,1.9369c-1.19904,0.64563 -2.21362,1.29127 -3.22818,1.9369c-1.01458,0.64563 -1.84468,1.29127 -2.58255,1.84468c-0.8301,0.64563 -1.38352,1.19904 -1.75244,1.75244c-0.36894,0.55341 -0.55341,1.1068 -0.46117,1.47575c0.09223,0.36894 0.27669,0.46117 0.27669,0.46117c0.09223,0 -0.18447,-0.09223 -0.36894,-0.46117z" fill="#423118"/><path d="M283.80595,233.87065c-0.46117,0.27669 -1.01458,0.55341 -1.66021,0.73789c-0.64563,0.18447 -1.29127,0.46117 -2.02915,0.46117c-0.36894,0 -0.8301,-0.09223 -1.1068,-0.46117c-0.27669,-0.27669 -0.36894,-0.73789 -0.27669,-1.1068c0.18447,-0.73789 0.55341,-1.29127 0.92234,-1.66021c0.36894,-0.46117 0.73789,-0.73789 0.92234,-0.92234c0.18447,-0.18447 0.36894,-0.27669 0.36894,-0.27669c0,0 -0.09223,0.09223 -0.27669,0.36894c-0.18447,0.27669 -0.46117,0.55341 -0.73789,1.01458c-0.27669,0.36894 -0.55341,0.92234 -0.64563,1.47575c0,0.27669 0,0.55341 0.18447,0.73789c0.18447,0.18447 0.46117,0.27669 0.73789,0.27669c0.55341,0 1.19904,-0.18447 1.84468,-0.36894c0.64563,-0.18447 1.19904,-0.36894 1.66021,-0.55341c1.01458,-0.36894 1.66021,-0.55341 1.66021,-0.55341c0,0 -0.64563,0.36894 -1.56799,0.8301z" fill="#52391e"/><path d="M276.98063,215.88504c-0.36894,0.18447 -0.73789,0.36894 -1.1068,0.55341c-0.46117,0.18447 -0.8301,0.36894 -1.29127,0.55341c-0.46117,0.09223 -0.92234,0.27669 -1.38352,0.36894c-0.27669,0 -0.46117,0.09223 -0.73789,0.09223c-0.18447,0 -0.46117,0 -0.73789,0c-0.27669,0 -0.55341,-0.09223 -0.8301,-0.18447c-0.27669,-0.09223 -0.55341,-0.18447 -0.73789,-0.36894c-0.18447,-0.09223 -0.46117,-0.46117 -0.46117,-0.73789c-0.09223,-0.27669 0,-0.64563 0.18447,-0.8301c0.27669,-0.46117 0.64563,-0.73789 1.01458,-1.01458c0.36894,-0.27669 0.64563,-0.46117 1.01458,-0.64563c0.64563,-0.36894 1.29127,-0.55341 1.66021,-0.73789c0.36894,-0.09223 0.64563,-0.18447 0.64563,-0.18447c0,0 -0.27669,0.09223 -0.64563,0.27669c-0.36894,0.18447 -0.92234,0.55341 -1.56799,0.92234c-0.27669,0.18447 -0.64563,0.36894 -0.92234,0.64563c-0.27669,0.27669 -0.64563,0.55341 -0.8301,0.92234c-0.18447,0.36894 -0.18447,0.64563 0.18447,0.92234c0.18447,0.09223 0.36894,0.18447 0.55341,0.27669c0.18447,0 0.36894,0.09223 0.64563,0.09223c0.18447,0 0.36894,0 0.64563,0c0.27669,0 0.46117,-0.09223 0.73789,-0.09223c0.46117,-0.09223 0.92234,-0.18447 1.38352,-0.36894c0.8301,-0.27669 1.66021,-0.55341 2.30585,-0.8301c1.29127,-0.55341 2.21362,-1.01458 2.21362,-1.01458c0,0 -0.8301,0.55341 -1.9369,1.38352z" fill="#52391e"/></g><g fill-rule="nonzero"><g><path d="M373.29032,266.98551c0.73789,4.70394 5.1651,13.18945 7.28648,13.18945c2.12138,0 6.2719,-1.9369 7.28648,-0.18447c1.01458,1.75244 -6.54861,2.76701 -6.54861,2.76701c0,0 6.91754,1.9369 7.28648,3.96606c0.36894,2.12138 -11.43702,-2.21362 -11.43702,-2.21362c0,0 2.95148,6.2719 1.19904,6.91754c-1.75244,0.73789 -3.96606,-2.12138 -5.34958,-6.36413c-1.38352,-4.24276 -5.7185,-15.03413 -5.7185,-15.03413z" fill="#e0ab38"/><path d="M384.63509,284.04878c-0.73789,-0.18447 -1.75244,-0.55341 -2.76701,-0.92234c-1.01458,-0.36894 -2.02915,-0.73789 -2.76701,-1.01458c-0.73789,-0.27669 -1.29127,-0.46117 -1.29127,-0.46117c0,0 0.55341,0 1.38352,0.18447c0.8301,0.18447 1.84468,0.46117 2.85926,0.8301c1.01458,0.36894 2.02915,0.8301 2.76701,1.19904c0.73789,0.36894 1.19904,0.64563 1.19904,0.64563c0,0 -0.46117,-0.09223 -1.38352,-0.46117z" fill="#b3872a"/><path d="M378.45541,288.47602c-0.27669,-0.55341 -0.55341,-1.38352 -0.8301,-2.12138c-0.27669,-0.8301 -0.55341,-1.56799 -0.8301,-2.12138c-0.18447,-0.27669 -0.27669,-0.46117 -0.36894,-0.64563c-0.09223,-0.18447 -0.18447,-0.27669 -0.18447,-0.27669c0,0 0.09223,0.09223 0.27669,0.18447c0.18447,0.09223 0.36894,0.27669 0.55341,0.55341c0.36894,0.55341 0.8301,1.29127 1.1068,2.12138c0.27669,0.8301 0.46117,1.66021 0.55341,2.30585c0.09223,0.64563 0.09223,1.1068 0.09223,1.1068c0,0 -0.18447,-0.36894 -0.36894,-1.1068z" fill="#b3872a"/><path d="M387.77104,279.7138c-0.09223,-0.09223 -0.36894,-0.18447 -0.73789,-0.18447c-0.36894,0 -0.73789,0.09223 -1.19904,0.09223c-0.46117,0.09223 -0.92234,0.09223 -1.38352,0.18447c-0.92234,0.09223 -1.84468,0.18447 -2.58255,0.27669c-0.73789,0.09223 -1.19904,0.09223 -1.19904,0.09223c0,0 0.46117,-0.27669 1.1068,-0.46117c0.64563,-0.18447 1.66021,-0.46117 2.58255,-0.55341c0.92234,-0.18447 1.9369,-0.18447 2.67479,0c0.36894,0.09223 0.73789,0.27669 0.8301,0.46117c0.09223,0.27669 0,0.36894 0,0.36894c0,0 0,-0.18447 -0.09223,-0.27669z" fill="#b3872a"/><path d="M387.67879,285.80124c1.66021,0.27669 2.12138,2.67479 2.12138,2.67479c0,0 -1.19904,-1.75244 -2.58255,-1.75244c0.09223,0 -0.46117,-1.01458 0.46117,-0.92234z" fill="#3b342d"/><path d="M377.902,290.41293c1.38352,1.01458 0.73789,3.32042 0.73789,3.32042c0,0 -0.27669,-2.12138 -1.47575,-2.76701c0,0.09223 0,-1.1068 0.73789,-0.55341z" fill="#3b342d"/><path d="M387.49434,279.89826c1.66021,-0.27669 2.85926,1.84468 2.85926,1.84468c0,0 -1.66021,-1.29127 -2.95148,-0.92234c0,0 -0.8301,-0.8301 0.09223,-0.92234z" fill="#3b342d"/></g><g><path d="M371.54057,207.19206c0.18447,-7.83989 3.96606,-13.00498 5.99521,-15.4953c2.02915,-2.49031 6.73307,-2.58255 8.94669,-2.21362c8.94669,1.38352 10.14574,31.63623 11.1603,41.68975c0.27669,2.76701 1.56799,16.69434 3.13596,20.38371c1.56799,3.68937 3.59712,6.45638 3.59712,6.45638c-1.1068,0 -2.02915,-0.36894 -2.02915,-0.36894c0.09223,0.73789 0.8301,1.9369 0.8301,1.9369c-2.21362,-0.36894 -2.95148,-3.22818 -2.95148,-3.22818c-0.18447,1.47575 0.46117,5.07286 0.46117,5.07286c-1.47575,-1.01458 -2.30585,-3.87383 -2.30585,-3.87383c0.73789,3.68937 -1.75244,5.62627 -1.75244,5.62627c0.55341,-1.47575 -0.8301,-4.42723 -0.8301,-4.42723c0.36894,2.67479 -1.01458,5.53403 -1.01458,5.53403c-1.47575,-0.55341 -1.38352,-2.85926 -1.38352,-2.85926c-0.18447,1.1068 -0.46117,3.32042 -0.46117,3.32042c-1.01458,-1.84468 -0.64563,-4.335 -0.55341,-4.70394c0,1.56799 -2.21362,3.22818 -2.21362,3.22818c0,0 1.66021,-1.29127 -0.36894,-8.39328c-1.01458,-3.41265 -3.50489,-8.11659 -6.2719,-14.94191c-4.05828,-10.23796 -8.20882,-21.67498 -8.66999,-29.97602c-0.73789,1.29127 -1.47575,2.85926 -1.47575,2.85926c-1.75244,-4.05828 0.8301,-9.2234 0.8301,-9.2234c-1.38352,1.1068 -2.67479,3.59712 -2.67479,3.59712z" fill="#694929"/><path d="M390.54076,262.71687c0.09223,-0.36894 0.27669,-0.92234 0.27669,-1.75244c0,-0.8301 -0.09223,-1.75244 -0.27669,-2.85926c-0.27669,-1.01458 -0.55341,-2.21362 -1.01458,-3.50489c-0.92234,-2.49031 -2.21362,-5.4418 -3.50489,-8.57775c-1.29127,-3.13596 -2.76701,-6.45638 -4.05828,-9.86903c-1.29127,-3.41265 -2.49031,-6.82531 -3.59712,-10.0535c-1.01458,-3.22818 -1.84468,-6.2719 -2.49031,-8.94669c-0.64563,-2.58255 -0.92234,-4.88839 -1.01458,-6.45638c-0.09223,-0.8301 -0.09223,-1.38352 -0.09223,-1.84468c0,-0.46117 0,-0.64563 0,-0.64563c0,0 0,0.18447 0,0.64563c0,0.46117 0,1.01458 0.09223,1.84468c0.09223,0.8301 0.27669,1.75244 0.46117,2.85926c0.27669,1.1068 0.55341,2.30585 0.8301,3.59712c0.64563,2.58255 1.56799,5.62627 2.67479,8.85445c1.1068,3.22818 2.39807,6.64085 3.68937,9.96127c2.58255,6.73307 5.53403,13.37392 7.28648,18.53902c0.8301,2.58255 1.1068,4.88839 1.01458,6.45638c0,0.8301 -0.18447,1.47575 -0.36894,1.84468c-0.18447,0.36894 -0.36894,0.55341 -0.36894,0.55341c0,0 0.09223,-0.18447 0.46117,-0.64563z" fill="#423118"/><path d="M373.47747,204.97844c-0.18447,0.8301 -0.36894,1.9369 -0.46117,3.13596c0,0.27669 0,0.55341 0,0.8301c0,0.27669 0,0.55341 0,0.8301c0,0.55341 0.09223,1.01458 0.09223,1.47575c0,0.46117 0.09223,0.8301 0.09223,1.1068c0,0.18447 0,0.36894 0,0.36894c0,0 0,-0.09223 -0.09223,-0.36894c-0.09223,-0.18447 -0.18447,-0.55341 -0.27669,-1.01458c-0.09223,-0.46117 -0.18447,-1.01458 -0.27669,-1.56799c0,-0.55341 0,-1.1068 0,-1.75244c0.09223,-0.55341 0.18447,-1.19904 0.27669,-1.75244c0.09223,-0.55341 0.27669,-1.1068 0.46117,-1.47575c0.18447,-0.36894 0.36894,-0.73789 0.55341,-0.92234c0.18447,-0.18447 0.27669,-0.27669 0.27669,-0.27669c0,0 -0.27669,0.55341 -0.64563,1.38352z" fill="#423118"/><path d="M371.54057,205.4396c0,-0.55341 0.09223,-1.19904 0.18447,-1.84468c0.09223,-0.64563 0.27669,-1.29127 0.46117,-2.02915c0.18447,-0.73789 0.36894,-1.38352 0.64563,-2.02915c0.18447,-0.64563 0.46117,-1.19904 0.73789,-1.66021c0.18447,-0.46117 0.46117,-0.8301 0.64563,-1.1068c0.18447,-0.18447 0.27669,-0.36894 0.27669,-0.36894c0,0 -0.09223,0.18447 -0.18447,0.46117c-0.09223,0.27669 -0.27669,0.73789 -0.46117,1.19904c-0.27669,0.46117 -0.46117,1.01458 -0.64563,1.66021c-0.18447,0.55341 -0.36894,1.29127 -0.55341,1.9369c-0.36894,1.38352 -0.64563,2.76701 -0.8301,3.78159c-0.18447,1.01458 -0.27669,1.75244 -0.27669,1.75244c0,0 -0.09223,-0.73789 0,-1.75244z" fill="#423118"/><path d="M403.1768,256.07605c-0.8301,-1.19904 -1.9369,-3.04373 -2.76701,-5.53403c-0.46117,-1.19904 -0.64563,-2.58255 -0.92234,-4.05828c-0.18447,-1.47575 -0.46117,-3.04373 -0.64563,-4.61169c-0.36894,-3.13596 -0.8301,-6.54861 -1.19904,-9.96127c-0.36894,-3.41265 -0.73789,-6.73307 -1.1068,-9.96127c-0.36894,-3.13596 -0.64563,-6.08744 -0.92234,-8.66999c-0.27669,-2.58255 -0.46117,-4.70394 -0.64563,-6.17968c-0.18447,-1.47575 -0.27669,-2.30585 -0.27669,-2.30585c0,0 0.18447,0.8301 0.36894,2.30585c0.18447,1.47575 0.55341,3.50489 0.8301,6.08744c0.36894,2.49031 0.73789,5.53403 1.1068,8.66999c0.36894,3.13596 0.8301,6.54861 1.19904,9.96127c0.36894,3.41265 0.73789,6.82531 1.1068,9.96127c0.18447,1.66021 0.36894,3.13596 0.55341,4.61169c0.18447,1.47575 0.36894,2.85926 0.73789,4.05828c0.73789,2.49031 1.75244,4.335 2.49031,5.62627c0.73789,1.29127 1.29127,1.9369 1.29127,1.9369c0,0 -0.55341,-0.64563 -1.19904,-1.9369z" fill="#423118"/><path d="M402.34669,259.4887c-0.27669,-0.09223 -0.46117,-0.18447 -0.73789,-0.36894c-0.18447,-0.09223 -0.46117,-0.36894 -0.64563,-0.55341c-0.18447,-0.18447 -0.36894,-0.46117 -0.46117,-0.73789c-0.09223,-0.27669 -0.18447,-0.55341 -0.27669,-0.73789c-0.09223,-0.46117 -0.09223,-0.73789 -0.09223,-0.73789c0,0 0,0.09223 0.09223,0.18447c0.09223,0.09223 0.18447,0.27669 0.27669,0.46117c0.09223,0.18447 0.18447,0.36894 0.36894,0.55341c0.09223,0.18447 0.27669,0.46117 0.46117,0.64563c0.36894,0.36894 0.73789,0.73789 1.1068,1.01458c0.36894,0.18447 0.64563,0.36894 0.64563,0.36894c0,0 -0.27669,0.09223 -0.73789,-0.09223z" fill="#423118"/><path d="M399.8564,260.96445c-0.36894,-0.27669 -0.73789,-0.73789 -1.1068,-1.19904c-0.36894,-0.46117 -0.55341,-1.01458 -0.64563,-1.47575c0,-0.18447 0,-0.46117 0,-0.55341c0.09223,-0.09223 0.09223,-0.18447 0.09223,-0.18447c0,0 0.09223,0.09223 0.09223,0.18447c0,0.09223 0.09223,0.27669 0.18447,0.46117c0.18447,0.36894 0.55341,0.8301 0.8301,1.29127c0.27669,0.46117 0.64563,0.92234 0.8301,1.29127c0.27669,0.36894 0.36894,0.64563 0.36894,0.64563c0,0 -0.18447,-0.09223 -0.64563,-0.46117z" fill="#423118"/><path d="M396.35151,262.53241c-0.09223,-0.36894 -0.18447,-0.92234 -0.27669,-1.47575c-0.09223,-0.55341 -0.18447,-1.01458 -0.27669,-1.47575c0,-0.27669 -0.09223,-0.46117 -0.09223,-0.55341c0,-0.09223 0,-0.18447 0,-0.18447c0,0 0.27669,0.18447 0.46117,0.55341c0.18447,0.36894 0.46117,0.92234 0.55341,1.47575c0.18447,0.55341 0.18447,1.1068 0.09223,1.56799c-0.09223,0.46117 -0.27669,0.73789 -0.27669,0.73789c0,0 0,-0.27669 -0.18447,-0.64563z" fill="#423118"/><path d="M394.23013,264.19262c-0.27669,-0.18447 -0.55341,-0.55341 -0.73789,-0.92234c-0.18447,-0.46117 -0.27669,-0.8301 -0.27669,-1.19904c0,-0.36894 0.09223,-0.55341 0.09223,-0.55341c0,0 0.09223,0 0.09223,0.09223c0.09223,0.09223 0.09223,0.18447 0.18447,0.36894c0.18447,0.27669 0.27669,0.64563 0.46117,1.01458c0.18447,0.27669 0.36894,0.64563 0.46117,0.92234c0.09223,0.27669 0.18447,0.46117 0.18447,0.46117c0,0 -0.27669,-0.09223 -0.46117,-0.18447z" fill="#423118"/><path d="M392.38545,264.28486c-0.18447,-0.46117 -0.36894,-1.01458 -0.46117,-1.66021c-0.09223,-0.55341 0,-1.19904 0.09223,-1.66021c0.18447,-0.46117 0.27669,-0.73789 0.27669,-0.73789c0,0 0,0.09223 0,0.18447c0.09223,0.09223 0.09223,0.36894 0.09223,0.55341c0,0.36894 0,1.01458 0.09223,1.56799c0,0.55341 0.09223,1.1068 0.18447,1.56799c0.09223,0.46117 0.18447,0.73789 0.18447,0.73789c0,0 -0.27669,-0.27669 -0.46117,-0.55341z" fill="#423118"/></g><g><path d="M401.81916,261.08664c0.73789,4.70394 5.1651,13.18945 7.28648,13.18945c2.12138,0 6.2719,-1.9369 7.28648,-0.18447c1.01458,1.75244 -6.54861,2.76701 -6.54861,2.76701c0,0 6.91754,1.9369 7.28648,3.96606c0.36894,2.12138 -11.43702,-2.21362 -11.43702,-2.21362c0,0 2.95148,6.2719 1.19904,6.91754c-1.75244,0.73789 -3.96606,-2.12138 -5.34958,-6.36413c-1.38352,-4.24276 -5.7185,-15.03413 -5.7185,-15.03413z" fill="#fbbf3f"/><path d="M413.25618,278.14991c-0.73789,-0.18447 -1.75244,-0.55341 -2.76701,-0.92234c-1.01458,-0.36894 -2.02915,-0.73789 -2.76701,-1.01458c-0.73789,-0.27669 -1.29127,-0.46117 -1.29127,-0.46117c0,0 0.55341,0 1.38352,0.18447c0.8301,0.18447 1.84468,0.46117 2.85926,0.8301c1.01458,0.36894 2.02915,0.8301 2.76701,1.19904c0.73789,0.36894 1.19904,0.64563 1.19904,0.64563c0,0 -0.55341,-0.18447 -1.38352,-0.46117z" fill="#c9982f"/><path d="M406.98427,282.57714c-0.27669,-0.55341 -0.55341,-1.38352 -0.8301,-2.12138c-0.27669,-0.8301 -0.55341,-1.56799 -0.8301,-2.12138c-0.18447,-0.27669 -0.27669,-0.46117 -0.36894,-0.64563c-0.09223,-0.18447 -0.18447,-0.27669 -0.18447,-0.27669c0,0 0.09223,0.09223 0.27669,0.18447c0.18447,0.09223 0.36894,0.27669 0.55341,0.55341c0.36894,0.55341 0.8301,1.29127 1.1068,2.12138c0.27669,0.8301 0.46117,1.66021 0.55341,2.30585c0.09223,0.64563 0.09223,1.1068 0.09223,1.1068c0,0 -0.18447,-0.36894 -0.36894,-1.1068z" fill="#c9982f"/><path d="M416.29989,273.72269c-0.09223,-0.09223 -0.36894,-0.18447 -0.73789,-0.18447c-0.36894,0 -0.73789,0.09223 -1.19904,0.09223c-0.46117,0.09223 -0.92234,0.09223 -1.38352,0.18447c-0.92234,0.09223 -1.84468,0.18447 -2.58255,0.27669c-0.73789,0.09223 -1.19904,0.09223 -1.19904,0.09223c0,0 0.46117,-0.27669 1.1068,-0.46117c0.64563,-0.18447 1.66021,-0.46117 2.58255,-0.55341c0.92234,-0.18447 1.9369,-0.18447 2.67479,0c0.36894,0.09223 0.73789,0.27669 0.8301,0.46117c0.09223,0.27669 0,0.36894 0,0.36894c0,0.09223 0,-0.09223 -0.09223,-0.27669z" fill="#c9982f"/><path d="M416.20766,279.90237c1.66021,0.27669 2.12138,2.67479 2.12138,2.67479c0,0 -1.19904,-1.75244 -2.58255,-1.75244c0.09223,-0.09223 -0.46117,-1.1068 0.46117,-0.92234z" fill="#3b342d"/><path d="M406.43087,284.51406c1.38352,1.01458 0.73789,3.32042 0.73789,3.32042c0,0 -0.27669,-2.12138 -1.47575,-2.76701c0,0.09223 0,-1.1068 0.73789,-0.55341z" fill="#3b342d"/><path d="M416.02319,273.90715c1.66021,-0.27669 2.85926,1.84468 2.85926,1.84468c0,0 -1.66021,-1.29127 -2.95148,-0.92234c0,0.09223 -0.8301,-0.73789 0.09223,-0.92234z" fill="#3b342d"/></g><g><path d="M343.43928,213.31799c0.18447,-7.83989 3.96606,-13.00498 5.99521,-15.4953c2.02915,-2.49031 6.73307,-2.58255 8.94669,-2.21362c8.94669,1.38352 10.14574,31.63623 11.1603,41.68975c0.27669,2.76701 1.56799,16.69434 3.13596,20.38371c1.56799,3.68937 3.59712,6.45638 3.59712,6.45638c-1.1068,0 -2.02915,-0.36894 -2.02915,-0.36894c0.09223,0.73789 0.8301,1.9369 0.8301,1.9369c-2.21362,-0.36894 -2.95148,-3.22818 -2.95148,-3.22818c-0.18447,1.47575 0.46117,5.07286 0.46117,5.07286c-1.47575,-1.01458 -2.30585,-3.87383 -2.30585,-3.87383c0.73789,3.68937 -1.75244,5.62627 -1.75244,5.62627c0.55341,-1.47575 -0.8301,-4.42723 -0.8301,-4.42723c0.36894,2.67479 -1.01458,5.53403 -1.01458,5.53403c-1.47575,-0.55341 -1.38352,-2.85926 -1.38352,-2.85926c-0.18447,1.1068 -0.46117,3.32042 -0.46117,3.32042c-1.01458,-1.84468 -0.64563,-4.335 -0.55341,-4.70394c0,1.56799 -2.21362,3.22818 -2.21362,3.22818c0,0 1.66021,-1.29127 -0.36894,-8.39328c-1.01458,-3.41265 -3.50489,-8.11659 -6.2719,-14.94191c-4.05828,-10.23796 -8.20882,-21.67498 -8.66999,-29.97602c-0.73789,1.29127 -1.47575,2.85926 -1.47575,2.85926c-1.75244,-4.05828 0.8301,-9.2234 0.8301,-9.2234c-1.38352,1.1068 -2.67479,3.59712 -2.67479,3.59712z" fill="#704e2c"/><path d="M362.43948,268.93505c0.09223,-0.36894 0.27669,-0.92234 0.27669,-1.75244c0,-1.56799 -0.36894,-3.87383 -1.29127,-6.36413c-0.92234,-2.49031 -2.21362,-5.4418 -3.50489,-8.57775c-1.29127,-3.13596 -2.76701,-6.45638 -4.05828,-9.86903c-1.29127,-3.41265 -2.49031,-6.82531 -3.59712,-10.0535c-1.01458,-3.22818 -1.84468,-6.2719 -2.49031,-8.94669c-0.64563,-2.67479 -0.92234,-4.98064 -1.01458,-6.54861c-0.09223,-0.8301 -0.09223,-1.38352 -0.09223,-1.84468c0,-0.46117 0,-0.64563 0,-0.64563c0,0 0,0.18447 0,0.64563c0,0.46117 0,1.01458 0.09223,1.84468c0.09223,0.8301 0.27669,1.75244 0.46117,2.85926c0.27669,1.1068 0.55341,2.30585 0.8301,3.59712c0.64563,2.58255 1.56799,5.62627 2.67479,8.85445c1.1068,3.22818 2.39807,6.64085 3.68937,9.96127c2.58255,6.73307 5.53403,13.37392 7.28648,18.53902c0.8301,2.58255 1.1068,4.88839 1.01458,6.45638c0,0.8301 -0.18447,1.47575 -0.36894,1.84468c-0.18447,0.36894 -0.36894,0.55341 -0.36894,0.55341c0,0 0.09223,-0.18447 0.46117,-0.55341z" fill="#423118"/><path d="M345.37621,211.1044c-0.18447,0.8301 -0.36894,1.9369 -0.46117,3.13596c0,0.27669 0,0.55341 0,0.8301c0,0.27669 0,0.55341 0,0.8301c0,0.55341 0.09223,1.01458 0.09223,1.47575c0,0.46117 0.09223,0.8301 0.09223,1.1068c0,0.18447 0,0.36894 0,0.36894c0,0 0,-0.09223 -0.09223,-0.36894c-0.09223,-0.18447 -0.18447,-0.55341 -0.27669,-1.01458c-0.09223,-0.46117 -0.18447,-1.01458 -0.27669,-1.56799c0,-0.55341 0,-1.1068 0,-1.75244c0.09223,-0.55341 0.18447,-1.19904 0.27669,-1.75244c0.09223,-0.55341 0.27669,-1.1068 0.46117,-1.47575c0.18447,-0.36894 0.36894,-0.73789 0.55341,-0.92234c0.18447,-0.18447 0.27669,-0.27669 0.27669,-0.27669c0,0 -0.27669,0.46117 -0.64563,1.38352z" fill="#423118"/><path d="M343.43928,211.56556c0,-0.55341 0.09223,-1.19904 0.18447,-1.84468c0.09223,-0.64563 0.27669,-1.29127 0.46117,-2.02915c0.18447,-0.73789 0.36894,-1.38352 0.64563,-2.02915c0.18447,-0.64563 0.46117,-1.19904 0.73789,-1.66021c0.18447,-0.46117 0.46117,-0.8301 0.64563,-1.1068c0.18447,-0.18447 0.27669,-0.36894 0.27669,-0.36894c0,0 -0.09223,0.18447 -0.18447,0.46117c-0.09223,0.27669 -0.27669,0.73789 -0.46117,1.19904c-0.27669,0.46117 -0.46117,1.01458 -0.64563,1.66021c-0.18447,0.55341 -0.36894,1.29127 -0.55341,1.9369c-0.36894,1.38352 -0.64563,2.76701 -0.8301,3.78159c-0.18447,1.01458 -0.27669,1.75244 -0.27669,1.75244c0,0 -0.09223,-0.73789 0,-1.75244z" fill="#423118"/><path d="M374.79884,262.20198c-0.73789,-1.19904 -1.84468,-3.04373 -2.67479,-5.53403c-0.46117,-1.19904 -0.64563,-2.58255 -0.92234,-4.05828c-0.18447,-1.47575 -0.46117,-3.04373 -0.64563,-4.61169c-0.36894,-3.13596 -0.8301,-6.54861 -1.19904,-9.96127c-0.36894,-3.41265 -0.73789,-6.73307 -1.1068,-9.96127c-0.36894,-3.13596 -0.64563,-6.08744 -0.92234,-8.66999c-0.27669,-2.58255 -0.46117,-4.70394 -0.64563,-6.17968c-0.18447,-1.47575 -0.27669,-2.30585 -0.27669,-2.30585c0,0 0.18447,0.8301 0.36894,2.30585c0.18447,1.47575 0.55341,3.50489 0.8301,6.08744c0.36894,2.49031 0.73789,5.53403 1.1068,8.66999c0.36894,3.13596 0.8301,6.54861 1.19904,9.96127c0.46117,3.41265 0.8301,6.82531 1.19904,9.96127c0.18447,1.66021 0.36894,3.13596 0.55341,4.61169c0.27669,1.47575 0.46117,2.85926 0.8301,4.05828c0.73789,2.39807 1.75244,4.335 2.49031,5.62627c0.73789,1.29127 1.29127,1.9369 1.29127,1.9369c0,0 -0.55341,-0.64563 -1.47575,-1.9369z" fill="#423118"/><path d="M374.24543,265.61466c-0.27669,-0.09223 -0.46117,-0.18447 -0.73789,-0.36894c-0.18447,-0.09223 -0.46117,-0.36894 -0.64563,-0.55341c-0.18447,-0.18447 -0.36894,-0.46117 -0.46117,-0.73789c-0.09223,-0.27669 -0.18447,-0.55341 -0.27669,-0.73789c-0.09223,-0.46117 -0.09223,-0.73789 -0.09223,-0.73789c0,0 0,0.09223 0.09223,0.18447c0.09223,0.09223 0.18447,0.27669 0.27669,0.46117c0.09223,0.18447 0.18447,0.36894 0.36894,0.55341c0.09223,0.18447 0.27669,0.46117 0.46117,0.64563c0.36894,0.36894 0.73789,0.73789 1.1068,1.01458c0.36894,0.18447 0.64563,0.36894 0.64563,0.36894c0,0 -0.27669,0.09223 -0.73789,-0.09223z" fill="#423118"/><path d="M371.84732,267.09039c-0.36894,-0.27669 -0.73789,-0.73789 -1.1068,-1.19904c-0.36894,-0.46117 -0.55341,-1.01458 -0.64563,-1.47575c0,-0.18447 0,-0.46117 0,-0.55341c0.09223,-0.09223 0.09223,-0.18447 0.09223,-0.18447c0,0 0.09223,0.09223 0.09223,0.18447c0,0.09223 0.09223,0.27669 0.18447,0.46117c0.18447,0.36894 0.55341,0.8301 0.8301,1.29127c0.27669,0.46117 0.64563,0.92234 0.8301,1.29127c0.27669,0.36894 0.36894,0.64563 0.36894,0.64563c0,0 -0.27669,-0.18447 -0.64563,-0.46117z" fill="#423118"/><path d="M368.25021,268.65836c-0.09223,-0.36894 -0.18447,-0.92234 -0.27669,-1.47575c-0.09223,-0.55341 -0.18447,-1.01458 -0.27669,-1.47575c0,-0.27669 -0.09223,-0.46117 -0.09223,-0.55341c0,-0.09223 0,-0.18447 0,-0.18447c0,0 0.27669,0.18447 0.46117,0.55341c0.18447,0.36894 0.46117,0.92234 0.55341,1.47575c0.18447,0.55341 0.18447,1.1068 0.09223,1.56799c-0.09223,0.46117 -0.27669,0.73789 -0.27669,0.73789c0,0 0,-0.27669 -0.18447,-0.64563z" fill="#423118"/><path d="M366.12884,270.22635c-0.27669,-0.18447 -0.55341,-0.55341 -0.73789,-0.92234c-0.18447,-0.46117 -0.27669,-0.8301 -0.27669,-1.19904c0,-0.36894 0.09223,-0.55341 0.09223,-0.55341c0,0 0.09223,0 0.09223,0.09223c0.09223,0.09223 0.09223,0.18447 0.18447,0.36894c0.18447,0.27669 0.27669,0.64563 0.46117,1.01458c0.18447,0.27669 0.36894,0.64563 0.46117,0.92234c0.09223,0.27669 0.18447,0.46117 0.18447,0.46117c0,0 -0.27669,0 -0.46117,-0.18447z" fill="#423118"/><path d="M364.28415,270.31857c-0.18447,-0.46117 -0.36894,-1.01458 -0.46117,-1.66021c-0.09223,-0.55341 0,-1.19904 0.09223,-1.66021c0.18447,-0.46117 0.27669,-0.73789 0.27669,-0.73789c0,0 0,0.09223 0,0.18447c0.09223,0.09223 0.09223,0.36894 0.09223,0.55341c0,0.36894 0,1.01458 0.09223,1.56799c0,0.55341 0.09223,1.1068 0.18447,1.56799c0.09223,0.46117 0.18447,0.73789 0.18447,0.73789c0,0 -0.27669,-0.18447 -0.46117,-0.55341z" fill="#423118"/></g></g><g fill-rule="nonzero"><g><path d="M214.54212,189.30316c-3.50489,3.78159 -5.99521,8.94669 -9.40786,15.03413c-6.36413,11.34477 -11.34477,19.5536 -31.17507,21.30604c-20.38371,1.75244 -28.03911,-10.88361 -28.03911,-10.88361c28.31583,16.50988 45.84026,1.75244 51.18983,-10.14574c4.42723,-9.7768 16.3254,-27.20901 19.8303,-26.47115c4.05828,0.73789 1.1068,7.28648 -2.39807,11.1603z" fill="#704e2c"/><path d="M208.08575,198.52656c-0.27669,0.55341 -0.64563,1.29127 -1.1068,2.21362c-0.92234,1.9369 -2.21362,4.61169 -4.15052,7.65542c-1.9369,3.04373 -4.42723,6.45638 -7.83989,9.40786c-3.41265,3.04373 -7.65542,5.53403 -12.35934,6.73307c-2.30585,0.64563 -4.79617,0.92234 -7.10202,1.1068c-2.30585,0.18447 -4.70394,0.18447 -6.91754,0.09223c-4.51947,-0.18447 -8.66999,-1.19904 -11.9904,-2.58255c-3.32042,-1.38352 -5.81075,-3.22818 -7.28648,-4.70394c-1.56799,-1.38352 -2.12138,-2.49031 -2.12138,-2.49031c0,0 0.55341,1.1068 2.12138,2.49031c1.47575,1.38352 3.96606,3.13596 7.28648,4.42723c1.66021,0.73789 3.50489,1.29127 5.53403,1.66021c2.02915,0.36894 4.15052,0.64563 6.36413,0.73789c2.21362,0.09223 4.51947,0.09223 6.82531,-0.09223c2.39807,-0.18447 4.70394,-0.46117 7.00979,-1.1068c2.30585,-0.55341 4.51947,-1.47575 6.54861,-2.58255c2.02915,-1.1068 3.96606,-2.39807 5.62627,-3.87383c3.41265,-2.95148 5.99521,-6.2719 7.93212,-9.2234c1.9369,-2.95148 3.32042,-5.62627 4.335,-7.47096c0.46117,-0.92234 0.8301,-1.66021 1.1068,-2.12138c0.27669,-0.46117 0.46117,-0.73789 0.46117,-0.73789c0,0 -0.18447,0.18447 -0.27669,0.46117z" fill="#423118"/><path d="M211.12946,182.38562c-1.56799,1.84468 -3.50489,4.70394 -5.81075,8.11659c-2.21362,3.41265 -4.70394,7.56317 -7.19424,12.08265c-0.55341,1.1068 -1.19904,2.30585 -1.75244,3.50489c-0.64563,1.19904 -1.29127,2.39807 -2.12138,3.50489c-1.56799,2.21362 -3.50489,4.24276 -5.62627,6.08744c-2.12138,1.75244 -4.51947,3.22818 -7.00979,4.335c-2.58255,1.1068 -5.1651,1.75244 -7.74765,2.12138c-2.58255,0.36894 -5.07286,0.36894 -7.47096,0.09223c-2.39807,-0.18447 -4.51947,-0.73789 -6.54861,-1.29127c-2.02915,-0.55341 -3.78159,-1.19904 -5.34958,-1.84468c-1.56799,-0.64563 -2.85926,-1.29127 -3.96606,-1.84468c-1.1068,-0.46117 -1.9369,-1.01458 -2.49031,-1.29127c-0.55341,-0.27669 -0.8301,-0.46117 -0.8301,-0.46117c0,0 0.36894,0.18447 0.92234,0.46117c0.55341,0.27669 1.38352,0.8301 2.49031,1.29127c1.1068,0.55341 2.39807,1.19904 3.96606,1.75244c1.56799,0.64563 3.41265,1.19904 5.34958,1.75244c2.02915,0.55341 4.24276,1.01458 6.54861,1.19904c2.39807,0.18447 4.88839,0.18447 7.37871,-0.18447c2.58255,-0.36894 5.07286,-1.01458 7.56317,-2.12138c2.39807,-1.1068 4.70394,-2.58255 6.82531,-4.335c2.12138,-1.75244 3.96606,-3.78159 5.53403,-5.99521c0.8301,-1.1068 1.56799,-2.21362 2.12138,-3.41265c0.55341,-1.19904 1.1068,-2.39807 1.75244,-3.50489c2.49031,-4.51947 5.1651,-8.57775 7.47096,-11.9904c2.30585,-3.41265 4.42723,-6.08744 5.99521,-7.93212c1.56799,-1.84468 2.67479,-2.67479 2.67479,-2.67479c0,0 -1.01458,0.8301 -2.67479,2.58255z" fill="#423118"/></g><g><path d="M139.37146,217.25004c-6.17968,-1.29127 -6.64085,-10.14574 -6.64085,-10.14574c0.46117,1.38352 3.04373,3.59712 3.04373,3.59712c-3.04373,-3.59712 -0.55341,-7.37871 -0.55341,-7.37871c0,0 -0.46117,3.59712 4.79617,3.04373c5.25733,-0.64563 6.2719,3.32042 6.2719,3.32042c0.09223,-2.12138 -1.75244,-3.32042 -1.75244,-3.32042c4.05828,0.55341 5.25733,6.73307 3.04373,9.40786c-1.38352,1.75244 -3.87383,2.39807 -8.20882,1.47575z" fill="#bd8f33"/><path d="M145.73559,216.97335c-0.09223,0.09223 -0.27669,0.18447 -0.55341,0.27669c-0.27669,0.09223 -0.55341,0.18447 -0.92234,0.27669c-0.36894,0.09223 -0.8301,0.18447 -1.29127,0.27669c-0.46117,0.09223 -0.92234,0.09223 -1.47575,0.09223c-0.27669,0.09223 -0.55341,0 -0.8301,0c-0.27669,0 -0.55341,0 -0.8301,-0.09223c-0.36894,0 -0.64563,-0.09223 -0.92234,-0.18447c-0.27669,-0.09223 -0.55341,-0.27669 -0.8301,-0.36894c-0.27669,-0.09223 -0.55341,-0.27669 -0.8301,-0.46117c-0.27669,-0.18447 -0.55341,-0.36894 -0.8301,-0.55341l-0.73789,-0.64563c-0.18447,-0.27669 -0.36894,-0.46117 -0.55341,-0.73789l-0.27669,-0.36894l-0.18447,-0.36894c-0.18447,-0.27669 -0.27669,-0.55341 -0.46117,-0.8301c-0.27669,-0.55341 -0.46117,-1.1068 -0.64563,-1.56799c-0.18447,-0.55341 -0.27669,-1.01458 -0.36894,-1.47575c-0.09223,-0.46117 -0.18447,-0.92234 -0.18447,-1.29127c0,-0.36894 -0.09223,-0.73789 -0.09223,-1.01458c-0.09223,-0.55341 -0.09223,-0.8301 -0.09223,-0.8301c0,0 0.09223,0.27669 0.18447,0.8301c0,0.27669 0.09223,0.55341 0.18447,0.92234c0.09223,0.36894 0.27669,0.73789 0.36894,1.19904c0.18447,0.36894 0.27669,0.92234 0.46117,1.38352c0.18447,0.46117 0.36894,1.01458 0.64563,1.47575c0.18447,0.27669 0.27669,0.46117 0.46117,0.73789l0.18447,0.36894l0.27669,0.36894l0.55341,0.64563l0.64563,0.55341c0.18447,0.27669 0.46117,0.36894 0.73789,0.55341c0.18447,0.18447 0.46117,0.36894 0.73789,0.46117c0.27669,0.18447 0.55341,0.27669 0.8301,0.36894c0.27669,0 0.55341,0.09223 0.8301,0.18447c0.27669,0.09223 0.55341,0.09223 0.8301,0.18447c0.27669,0.09223 0.55341,0.09223 0.8301,0.09223c0.55341,0 1.01458,0 1.47575,0c0.46117,0 0.92234,0 1.29127,-0.09223c0.36894,-0.09223 0.64563,-0.09223 0.92234,-0.18447c0.55341,-0.09223 0.8301,-0.18447 0.8301,-0.18447c0,0 -0.09223,0 -0.36894,0z" fill="#704e2c"/><path d="M148.50262,213.56069c0,-0.27669 0.09223,-0.64563 0.09223,-1.1068c0.09223,-0.92234 0,-2.12138 -0.55341,-3.13596c-0.18447,-0.27669 -0.27669,-0.55341 -0.46117,-0.73789c-0.18447,-0.27669 -0.36894,-0.46117 -0.55341,-0.64563c-0.27669,-0.18447 -0.46117,-0.36894 -0.64563,-0.55341c-0.18447,-0.09223 -0.36894,-0.27669 -0.55341,-0.36894c-0.18447,-0.09223 -0.36894,-0.18447 -0.55341,-0.27669c-0.18447,-0.09223 -0.36894,-0.09223 -0.46117,-0.18447c-0.18447,-0.09223 -0.36894,-0.18447 -0.36894,-0.18447c0,0 0.18447,0 0.46117,0.09223c0.27669,0.09223 0.64563,0.18447 1.1068,0.36894c0.18447,0.09223 0.36894,0.27669 0.64563,0.36894c0.27669,0.09223 0.46117,0.27669 0.73789,0.46117c0.18447,0.18447 0.46117,0.36894 0.64563,0.64563c0.27669,0.27669 0.36894,0.55341 0.55341,0.8301c0.18447,0.27669 0.27669,0.64563 0.36894,0.92234c0.09223,0.27669 0.18447,0.64563 0.18447,0.92234c0.09223,0.64563 0,1.19904 -0.09223,1.66021c-0.09223,0.46117 -0.27669,0.8301 -0.36894,1.1068c-0.09223,0.27669 -0.18447,0.36894 -0.18447,0.36894c0,0 0,-0.18447 0,-0.55341z" fill="#704e2c"/><path d="M145.64337,209.31793c-0.18447,-0.36894 -0.55341,-0.8301 -0.92234,-1.29127c-0.18447,-0.27669 -0.46117,-0.55341 -0.73789,-0.73789c-0.27669,-0.18447 -0.64563,-0.27669 -1.01458,-0.46117c-0.73789,-0.27669 -1.66021,-0.27669 -2.49031,-0.27669c-0.8301,0 -1.75244,0 -2.58255,-0.09223c-0.8301,-0.09223 -1.75244,-0.36894 -2.21362,-0.92234c-0.27669,-0.27669 -0.36894,-0.55341 -0.46117,-0.8301c-0.09223,-0.27669 -0.18447,-0.55341 -0.18447,-0.73789c0,-0.18447 0,-0.36894 0,-0.46117c0,-0.09223 0,-0.18447 0,-0.18447c0,0 0.09223,0.18447 0.18447,0.55341c0.09223,0.18447 0.18447,0.36894 0.27669,0.64563c0.18447,0.18447 0.27669,0.46117 0.55341,0.64563c0.46117,0.46117 1.19904,0.55341 2.02915,0.64563c0.8301,0.09223 1.66021,0.09223 2.58255,0.09223c0.92234,0 1.84468,0.09223 2.67479,0.36894c0.8301,0.27669 1.47575,0.92234 1.84468,1.47575c0.46117,0.55341 0.64563,1.01458 0.8301,1.38352c0.18447,0.36894 0.27669,0.55341 0.27669,0.55341c0,0 -0.09223,-0.09223 -0.64563,-0.36894z" fill="#704e2c"/><path d="M135.1287,210.14804c-0.18447,-0.27669 -0.36894,-0.55341 -0.55341,-0.8301c-0.18447,-0.27669 -0.27669,-0.64563 -0.36894,-1.01458c-0.18447,-0.73789 -0.18447,-1.47575 0,-2.02915c0,-0.27669 0.09223,-0.46117 0.18447,-0.64563c0.09223,-0.18447 0.09223,-0.27669 0.09223,-0.27669c0,0 0,0.09223 0,0.27669c0,0.18447 0,0.36894 0,0.64563c0,0.27669 0.09223,0.55341 0.09223,0.92234c0.09223,0.36894 0.09223,0.64563 0.18447,1.01458c0.18447,0.64563 0.36894,1.29127 0.64563,1.75244c0.27669,0.46117 0.46117,0.73789 0.46117,0.73789c0,0 -0.36894,-0.09223 -0.73789,-0.55341z" fill="#704e2c"/></g></g><g fill-rule="evenodd"><path d="M168.2672,77.10538c56.28171,-9.81384 70.77447,25.33758 70.77447,25.33758c-24.45098,28.63859 -4.00107,84.75597 -4.00107,84.75597c-26.85162,-34.08082 -79.57682,-4.72849 -79.57682,-4.72849c4.00107,-38.80932 -32.00856,-23.64245 -32.00856,-23.64245c13.24799,-37.29263 -13.60363,-37.82793 -22.05034,-34.5269c0,0 40.45525,-42.4672 66.86232,-47.19569z" fill="#a1c380"/><path d="M237.17451,193.80098c-3.20086,-13.65018 -13.07016,-19.80614 -16.35992,-40.05834c-3.02303,-18.11101 8.44671,-41.21816 8.44671,-41.21816c0,0 -15.82645,2.85494 -33.16442,10.79523c-18.04927,8.20795 -42.76699,64.32533 -42.76699,64.32533c0,0 7.46867,-29.08468 20.00535,-53.6193c12.53668,-24.53462 56.99301,-30.33372 56.99301,-30.33372c0,0 -35.03159,-8.11873 -51.12477,-2.76573c-16.09319,5.35301 -58.59344,62.63021 -58.59344,62.63021c20.36099,-42.02112 42.05569,-61.29195 55.21475,-71.01659c13.24799,-9.72463 56.10389,2.85494 56.10389,2.85494c-3.20086,-9.10012 -37.25441,-16.32667 -57.97105,-15.16686c-20.62773,1.15982 -78.0653,49.15846 -78.0653,49.15846c0,0 48.45739,-54.42226 76.10923,-56.92033c35.1205,-3.12258 70.86339,15.61294 70.86339,15.61294c1.60042,-9.36776 -9.33583,-11.59818 -9.33583,-11.59818c8.98018,-1.0706 15.91537,7.22656 17.87144,17.93258c1.95608,10.70601 -16.62666,31.13667 -20.27209,49.42612c-3.64542,18.28945 23.47294,47.82021 23.47294,47.82021c1.06695,7.405 -15.38188,11.1521 -17.42687,2.14121z" fill="#69b229"/><path d="M249.88902,186.39598c-1.42261,-1.69512 -3.37868,-4.19319 -5.60149,-7.22656c-2.22282,-3.03338 -4.71237,-6.69126 -7.0241,-10.79523c-2.31173,-4.10397 -4.53454,-8.65404 -5.86823,-13.56096c-0.62239,-2.40886 -0.97804,-4.99614 -0.80021,-7.49422c0.26674,-2.49808 0.88912,-4.90692 1.51151,-7.13735c1.33369,-4.55005 3.11194,-8.56482 4.80128,-11.95505c1.68934,-3.39023 3.20086,-6.15596 4.35672,-8.02952c1.06695,-1.87356 1.77825,-2.94416 1.77825,-2.94416c0,0 -2.66738,4.2824 -5.86823,11.06288c-1.60042,3.39023 -3.28977,7.49422 -4.62345,11.95505c-0.62239,2.23042 -1.15587,4.63927 -1.42261,7.04813c-0.17783,2.40886 0.17783,4.90692 0.80021,7.31578c1.33369,4.81771 3.4676,9.36776 5.77932,13.47174c2.22282,4.10397 4.71237,7.76187 6.84627,10.88445c4.35672,6.15596 7.64649,9.99228 7.64649,9.99228c0,0 -0.88913,-0.89217 -2.31173,-2.58729z" fill="#519b3d"/><path d="M231.57301,103.51356c-1.24478,0.26765 -3.02303,0.5353 -5.06802,0.98139c-2.04499,0.44608 -4.44564,0.98139 -7.0241,1.60591c-2.57846,0.62452 -5.33476,1.33825 -8.00214,2.23042c-2.66738,0.80295 -5.33476,1.69512 -7.82431,2.67651c-2.40065,0.98139 -4.71237,1.87356 -6.66845,2.76573c-1.86716,0.89217 -3.5565,1.60591 -4.62345,2.14121c-1.15587,0.5353 -1.77825,0.89217 -1.77825,0.89217c0,0 0.62238,-0.35687 1.68934,-0.98139c1.06695,-0.5353 2.57846,-1.42747 4.53454,-2.31964c1.95608,-0.98139 4.1789,-1.96277 6.66845,-2.94416c2.40065,-0.98139 5.15694,-1.87356 7.82431,-2.76573c2.66738,-0.80295 5.42368,-1.51669 8.00214,-2.14121c2.57846,-0.62452 4.97911,-1.0706 7.11301,-1.42747c2.04499,-0.35687 3.82324,-0.5353 5.06802,-0.71374c1.24478,-0.08922 1.95608,-0.17843 1.95608,-0.26765c0,0.08922 -0.7113,0.17843 -1.86716,0.26765z" fill="#519b3d"/><path d="M232.37322,95.7517c-1.24478,-0.35687 -3.02303,-0.89217 -5.24585,-1.42747c-2.1339,-0.5353 -4.71237,-1.15982 -7.46867,-1.69512c-2.75629,-0.5353 -5.77932,-1.0706 -8.71344,-1.51669c-1.51151,-0.26765 -3.02303,-0.44608 -4.44564,-0.62452c-1.51151,-0.26765 -2.93412,-0.35687 -4.35672,-0.5353c-1.33369,-0.17843 -2.75629,-0.26765 -4.00107,-0.35687c-1.33369,-0.17843 -2.48956,-0.17843 -3.64542,-0.26765c-1.15587,-0.08922 -2.22282,-0.08922 -3.11194,-0.17843c-0.97804,-0.08922 -1.77825,-0.08922 -2.40065,-0.08922c-1.33369,-0.08922 -2.04499,-0.08922 -2.04499,-0.08922c0,0 0.7113,-0.08922 2.04499,-0.08922c0.7113,-0.08922 1.51151,-0.08922 2.40065,-0.08922c0.97804,0 1.95608,0.08922 3.11194,0.08922c1.15587,0.08922 2.31173,0.08922 3.64542,0.17843c1.33369,0.08922 2.66738,0.08922 4.08998,0.26765c1.42261,0.08922 2.8452,0.26765 4.35672,0.44608c1.42261,0.17843 2.93412,0.35687 4.44564,0.62452c3.02303,0.44608 5.95715,0.98139 8.71344,1.60591c1.42261,0.26765 2.75629,0.62452 4.00107,0.89217c1.24478,0.35687 2.48956,0.62452 3.5565,0.98139c2.22282,0.62452 4.00107,1.15982 5.24585,1.60591c1.24478,0.44608 1.95608,0.71374 1.95608,0.71374c0,0 -0.7113,-0.26765 -2.1339,-0.44608z" fill="#519b3d"/><path d="M240.10863,87.00845c-1.68934,-0.80295 -4.08998,-1.87356 -7.11301,-3.03338c-1.42261,-0.62452 -3.11194,-1.24904 -4.80128,-1.87356c-1.68934,-0.62452 -3.5565,-1.15982 -5.42368,-1.87356c-1.86717,-0.5353 -3.82324,-1.24904 -5.86823,-1.78434c-2.04499,-0.62452 -4.08998,-1.24904 -6.13497,-1.69512c-1.06695,-0.26765 -2.04499,-0.5353 -3.11194,-0.80295c-1.06695,-0.26765 -2.04499,-0.5353 -3.11194,-0.71374c-0.97804,-0.17843 -2.04499,-0.44608 -3.02303,-0.62452c-1.06695,-0.17843 -2.04499,-0.35687 -3.02303,-0.5353c-0.97804,-0.17843 -1.95608,-0.35687 -2.93412,-0.5353c-0.88913,-0.08922 -1.86716,-0.26765 -2.75629,-0.35687c-0.88913,-0.08922 -1.77825,-0.26765 -2.66738,-0.35687c-0.88913,-0.17843 -1.68934,-0.17843 -2.48956,-0.26765c-1.60042,-0.08922 -3.02303,-0.26765 -4.35672,-0.35687c-1.33369,0 -2.40065,-0.08922 -3.37868,-0.08922c-1.86716,-0.08922 -2.93412,-0.08922 -2.93412,-0.08922c0,0 1.06695,0 2.93412,0c0.97804,0 2.04499,0 3.37868,0c1.24478,0.08922 2.75629,0.17843 4.35672,0.26765c0.80021,0.08922 1.60042,0.08922 2.48956,0.17843c0.88913,0.08922 1.77825,0.17843 2.66738,0.26765c0.97804,0.17843 1.86716,0.26765 2.8452,0.35687c0.97804,0.08922 1.95608,0.26765 2.93412,0.44608c0.97804,0.17843 2.04499,0.35687 3.02303,0.5353c1.06695,0.17843 2.04499,0.44608 3.11194,0.62452c1.06695,0.17843 2.04499,0.44608 3.11194,0.62452c1.06695,0.26765 2.04499,0.5353 3.11194,0.80295c2.04499,0.44608 4.08998,1.0706 6.13497,1.69512c1.95608,0.62452 3.91216,1.24904 5.86823,1.87356c1.86716,0.62452 3.73433,1.24904 5.42368,1.96277c1.68934,0.71374 3.28977,1.33825 4.80128,1.96277c1.51151,0.62452 2.8452,1.24904 4.00107,1.78434c1.15587,0.5353 2.22282,0.98139 3.02303,1.42747c1.68934,0.80295 2.66738,1.33825 2.66738,1.33825c0,0 -0.97804,-0.5353 -2.75629,-1.15982z" fill="#519b3d"/><path d="M236.01864,191.12447c0,-0.35687 -0.08891,-0.89217 -0.26674,-1.60591c-0.17783,-0.71374 -0.44457,-1.51669 -0.80021,-2.40886c-0.44457,-0.89217 -0.88913,-1.87356 -1.42261,-2.94416c-0.53347,-1.0706 -1.15587,-2.23042 -1.86717,-3.39023c-0.7113,-1.15982 -1.51151,-2.40886 -2.31173,-3.65788c-1.60042,-2.49808 -3.11194,-5.44222 -4.35672,-8.38638c-1.24478,-3.03338 -2.22282,-6.06674 -3.02303,-9.0109c-0.7113,-2.94416 -1.24478,-5.70988 -1.51151,-8.11873c-0.35565,-2.31964 -0.35565,-4.37162 -0.26674,-5.79909c0.08891,-0.71374 0.08891,-1.24904 0.17783,-1.60591c0.08891,-0.35687 0.08891,-0.5353 0.08891,-0.5353c0,0 -0.08891,0.17843 -0.08891,0.5353c0,0.35687 -0.08891,0.89217 -0.08891,1.60591c0,1.42747 0.08891,3.39023 0.44457,5.79909c0.35565,2.40886 0.88912,5.08536 1.68934,8.02952c0.7113,2.94416 1.77825,5.97753 3.02303,8.92169c1.24478,2.94416 2.66738,5.88831 4.26781,8.38638c0.80021,1.24904 1.51151,2.58729 2.22282,3.7471c0.7113,1.24904 1.33369,2.40886 1.86716,3.47945c1.06695,2.14121 1.77825,4.10397 2.04499,5.44222c0.17783,0.71374 0.26674,1.24904 0.26674,1.60591c0,0.35687 0,0.5353 0,0.5353c0,0 0,-0.17843 -0.08891,-0.62452z" fill="#519b3d"/><path d="M230.77279,111.27542c-0.62239,0.98139 -1.33369,2.31964 -1.95608,3.7471c-0.7113,1.42747 -1.33369,2.85494 -1.77825,3.92554c-0.17783,0.5353 -0.35565,0.98139 -0.53347,1.24904c-0.17783,0.26765 -0.26674,0.44608 -0.26674,0.44608c0,0 0,-0.17843 0.08891,-0.5353c0.08891,-0.26765 0.17783,-0.80295 0.35566,-1.33825c0.26674,-1.15982 0.88912,-2.58729 1.51151,-4.01475c0.62239,-1.42747 1.42261,-2.76573 2.13391,-3.7471c0.35565,-0.44608 0.62238,-0.80295 0.88913,-1.0706c0.17783,-0.26765 0.35565,-0.35687 0.35565,-0.35687c0,0 -0.53347,0.71374 -0.80021,1.69512z" fill="#519b3d"/><path d="M231.57301,94.50266c-0.17783,-0.17843 -0.35565,-0.44608 -0.62239,-0.71374c-0.26674,-0.26765 -0.53347,-0.62452 -0.88913,-0.89217c-0.35565,-0.26765 -0.7113,-0.62452 -1.15587,-0.89217c-0.35565,-0.26765 -0.88912,-0.5353 -1.33369,-0.89217c-0.44457,-0.26765 -0.97804,-0.62452 -1.51151,-0.89217c-0.53347,-0.26765 -1.06695,-0.5353 -1.60042,-0.80295c-0.53347,-0.26765 -1.06695,-0.5353 -1.60042,-0.80295c-0.53347,-0.26765 -1.06695,-0.44608 -1.60042,-0.71374c-1.06695,-0.44608 -2.04499,-0.80295 -2.93412,-1.15982c-1.68934,-0.71374 -2.8452,-1.15982 -2.8452,-1.15982c0,0 0.26674,0 0.80021,0.17843c0.53347,0.17843 1.24478,0.35687 2.1339,0.62452c0.80021,0.35687 1.86716,0.62452 2.93412,1.0706c0.53347,0.26765 1.15587,0.44608 1.68934,0.71374c0.53347,0.26765 1.15587,0.5353 1.68934,0.80295c0.53347,0.26765 1.06695,0.62452 1.60042,0.89217c0.53347,0.35687 1.06695,0.62452 1.51151,0.98139c0.44457,0.26765 0.88912,0.62452 1.33369,0.98139c0.44457,0.26765 0.80021,0.62452 1.15587,0.98139c0.26674,0.35687 0.62238,0.62452 0.80021,0.98139c0.26674,0.26765 0.44457,0.5353 0.53347,0.80295c0.26674,0.44608 0.26674,0.80295 0.26674,0.80295c0,0 -0.08891,-0.35687 -0.35565,-0.89217z" fill="#519b3d"/><path d="M243.13166,84.86725c0.17783,0.5353 0.26674,1.15982 0.26674,1.87356c0,0.71374 -0.08891,1.51669 -0.44457,2.23042c-0.08891,0.08922 -0.17783,0.26765 -0.35565,0.44608c-0.08891,0.17843 -0.26674,0.35687 -0.35565,0.44608c-0.17783,0.17843 -0.35565,0.5353 -0.44457,0.80295c-0.17783,0.62452 -0.08891,1.24904 0.08891,1.69512c0.17783,0.44608 0.44457,0.80295 0.7113,0.98139c0.26674,0.26765 0.44457,0.26765 0.44457,0.26765c0,0 -0.26674,0.08922 -0.53347,-0.08922c-0.35565,-0.17843 -0.7113,-0.44608 -0.97804,-0.98139c-0.26674,-0.5353 -0.44457,-1.24904 -0.26674,-1.96277c0.08891,-0.35687 0.17783,-0.71374 0.44457,-1.0706c0.08891,-0.17843 0.26674,-0.26765 0.35565,-0.44608c0.08891,-0.08922 0.17783,-0.17843 0.26674,-0.35687c0.26674,-0.62452 0.44457,-1.33825 0.44457,-1.96277c0,-0.62452 0,-1.24904 -0.08891,-1.78434c-0.08891,-1.0706 -0.26674,-1.78434 -0.26674,-1.78434c0,0 0.35565,0.62452 0.7113,1.69512z" fill="#519b3d"/><path d="M197.16381,122.8736c-0.53347,0.17843 -1.24478,0.44608 -2.13391,0.98139c-1.77825,0.98139 -4.08998,2.85494 -6.57953,5.35301c-1.24478,1.24904 -2.57846,2.67651 -3.82324,4.2824c-1.24478,1.60591 -2.57846,3.30102 -3.82324,5.08536c-1.33369,1.78434 -2.57846,3.65788 -3.82324,5.62066c-0.62238,0.98139 -1.24478,1.96277 -1.86716,2.94416c-0.62238,0.98139 -1.24478,2.05199 -1.86716,3.03338c-1.24478,1.96277 -2.40065,4.01475 -3.5565,6.06674c-1.15587,2.05199 -2.22282,4.01475 -3.28977,5.97753c-2.13391,3.92554 -4.00107,7.58343 -5.69041,10.70601c-3.20086,6.24518 -5.42368,10.43836 -5.42368,10.43836c0,0 0.53347,-1.0706 1.42261,-2.94416c0.88913,-1.87356 2.13391,-4.46084 3.73433,-7.67265c1.60042,-3.2118 3.4676,-6.8697 5.60149,-10.79523c1.06695,-1.96277 2.13391,-3.92554 3.28977,-5.97753c1.15587,-1.96277 2.31173,-4.01475 3.5565,-6.06674c0.62238,-1.0706 1.24478,-2.05199 1.86716,-3.03338c0.62238,-0.98139 1.24478,-1.96277 1.86716,-2.94416c1.24478,-1.96277 2.48956,-3.83632 3.82324,-5.62066c1.24478,-1.87356 2.57846,-3.56867 3.91216,-5.08536c1.33369,-1.51669 2.66738,-2.94416 3.91216,-4.19319c1.24478,-1.24904 2.48956,-2.31964 3.64542,-3.2118c1.15587,-0.89217 2.22282,-1.60591 3.11194,-2.05199c0.97804,-0.5353 1.68934,-0.80295 2.22282,-0.98139c0.53347,-0.17843 0.80021,-0.17843 0.80021,-0.17843c0,0 -0.26674,0.08922 -0.88913,0.26765z" fill="#519b3d"/><path d="M125.76695,133.66885c-0.17783,-0.35687 -0.35565,-0.80295 -0.62238,-1.24904c-0.26674,-0.44608 -0.53347,-0.98139 -0.88913,-1.51669c-0.26674,-0.5353 -0.80021,-1.0706 -1.24478,-1.69512c-0.53347,-0.5353 -1.06695,-1.15982 -1.68934,-1.69512c-0.62238,-0.62452 -1.33369,-1.0706 -2.04499,-1.51669c-0.35565,-0.26765 -0.80021,-0.44608 -1.15587,-0.62452c-0.35565,-0.17843 -0.7113,-0.35687 -1.15587,-0.5353l-1.24478,-0.44608c-0.44457,-0.17843 -0.80021,-0.26765 -1.24478,-0.35687c-0.44457,-0.08922 -0.80021,-0.17843 -1.24478,-0.26765l-0.62238,-0.08922c-0.17783,-0.08922 -0.44457,-0.08922 -0.62238,-0.08922c-0.88913,0 -1.60042,-0.17843 -2.40065,-0.17843c-0.7113,0 -1.51151,0 -2.13391,0c-0.35565,0 -0.7113,0 -0.97804,0c-0.35565,0 -0.62238,0.08922 -0.88913,0.08922c-0.53347,0.08922 -1.06695,0.17843 -1.42261,0.17843c-0.80021,0.08922 -1.24478,0.08922 -1.24478,0.08922c0,0 0.44457,-0.08922 1.24478,-0.26765c0.44457,-0.08922 0.88913,-0.17843 1.42261,-0.26765c0.26674,-0.08922 0.62238,-0.08922 0.88913,-0.17843c0.35565,-0.08922 0.62238,-0.08922 0.97804,-0.08922c0.62238,0 1.33369,0 2.13391,-0.08922c0.7113,0 1.60042,0 2.40065,0.08922c0.17783,0.08922 0.44457,0.08922 0.62238,0.08922l0.62238,0.08922c0.44457,0.08922 0.88913,0.17843 1.33369,0.26765c0.44457,0.08922 0.88913,0.17843 1.33369,0.35687l1.24478,0.44608c0.44457,0.17843 0.80021,0.44608 1.24478,0.62452c0.35565,0.17843 0.80021,0.35687 1.15587,0.62452c0.7113,0.5353 1.42261,0.98139 2.04499,1.60591c0.7113,0.5353 1.15587,1.24904 1.68934,1.78434c0.44457,0.62452 0.88913,1.15982 1.24478,1.78434c0.35565,0.5353 0.62238,1.0706 0.80021,1.60591c0.26674,0.5353 0.44457,0.98139 0.53347,1.33825c0.17783,0.71374 0.26674,1.15982 0.26674,1.15982c0,0 -0.08891,-0.44608 -0.35565,-1.0706z" fill="#7d9950"/><path d="M185.69409,99.4988c-1.06695,0.17843 -2.57846,0.5353 -4.35672,0.98139c-0.88913,0.17843 -1.86716,0.5353 -2.8452,0.89217c-0.97804,0.35687 -1.95608,0.98139 -2.93412,1.51669c-1.95608,1.24904 -3.91216,2.76573 -5.77932,4.37162c-1.86716,1.60591 -3.64542,3.30102 -5.33476,4.90692c-1.60042,1.60591 -3.20086,3.12259 -4.53454,4.46084c-2.66738,2.58729 -4.44564,4.37162 -4.44564,4.37162c0,0 1.60042,-1.87356 4.1789,-4.55005c1.33369,-1.33825 2.75629,-2.94416 4.44564,-4.55005c1.68934,-1.60591 3.4676,-3.39023 5.33476,-4.99614c1.95608,-1.69512 3.91216,-3.2118 5.95715,-4.37162c0.97804,-0.62452 1.95608,-1.15982 3.02303,-1.51669c1.06695,-0.35687 2.04499,-0.62452 2.93412,-0.80295c1.77825,-0.35687 3.37868,-0.5353 4.44564,-0.71374c1.06695,-0.17843 1.68934,-0.17843 1.68934,-0.17843c0,0 -0.62238,0.08922 -1.77825,0.17843z" fill="#519b3d"/><path d="M97.67055,127.69132c1.24478,-1.0706 3.02303,-2.58729 5.15694,-4.2824c2.13391,-1.69512 4.71237,-3.7471 7.37974,-5.88831c2.66738,-2.14121 5.60149,-4.37162 8.53561,-6.60205c2.93412,-2.23042 5.95715,-4.37162 8.71344,-6.42361c2.75629,-2.05199 5.42368,-3.83632 7.7354,-5.35301c1.15587,-0.80295 2.22282,-1.51669 3.20086,-2.05199c0.97804,-0.62452 1.77825,-1.15982 2.48956,-1.51669c1.42261,-0.80295 2.22282,-1.24904 2.22282,-1.24904c0,0 -0.7113,0.5353 -2.13391,1.33825c-0.62238,0.44608 -1.42261,0.98139 -2.40065,1.60591c-0.97804,0.62452 -1.95608,1.33825 -3.11194,2.14121c-2.31173,1.60591 -4.8902,3.47945 -7.64649,5.53144c-2.75629,2.05199 -5.69041,4.2824 -8.62452,6.51283c-2.93412,2.23042 -5.77932,4.46084 -8.53561,6.60205c-2.75629,2.14121 -5.24585,4.10397 -7.46867,5.79909c-4.35672,3.39023 -7.29084,5.62066 -7.29084,5.62066c0,0 0.7113,-0.62452 1.77825,-1.78434z" fill="#519b3d"/><path d="M150.75504,90.39997c55.65932,-13.20409 72.19707,21.05517 72.19707,21.05517c-22.67272,29.97685 1.06695,84.84519 1.06695,84.84519c-28.89661,-32.38571 -79.75465,0 -79.75465,0c1.68934,-38.98775 -33.34224,-21.7689 -33.34224,-21.7689c10.93626,-37.91715 -15.82645,-36.93576 -24.09533,-33.09944c0,0 37.78788,-44.87606 63.9282,-51.03202z" fill="#b4d189"/><path d="M233.53998,201.80487c-3.91216,-13.56096 -14.13711,-19.0924 -18.67165,-39.07697c-4.08998,-17.93258 5.95715,-41.66425 5.95715,-41.66425c0,0 -15.55971,3.83632 -32.45311,12.75801c-17.51579,9.27855 -38.85483,66.73418 -38.85483,66.73418c0,0 5.77932,-29.53076 16.80449,-54.77912c11.02517,-25.33758 55.12584,-33.72396 55.12584,-33.72396c0,0 -35.38723,-6.06674 -51.12477,0.26765c-15.73754,6.33439 -54.7702,66.02044 -54.7702,66.02044c17.78253,-43.18094 38.23245,-63.70081 50.85804,-74.22839c12.53668,-10.52758 56.10389,-0.5353 56.10389,-0.5353c-3.73433,-8.83247 -38.14353,-14.00704 -58.77127,-11.59818c-20.53882,2.40886 -74.95336,53.79774 -74.95336,53.79774c0,0 45.07872,-57.2772 72.55272,-61.38117c34.85376,-5.26379 71.6636,11.33053 71.6636,11.33053c1.06695,-9.45698 -9.95822,-11.06288 -9.95822,-11.06288c8.89126,-1.60591 16.27102,6.33439 18.84948,16.86197c2.57846,10.52758 -14.67059,32.02884 -17.33796,50.49672c-2.66738,18.37866 26.22924,46.30353 26.22924,46.30353c1.60042,7.405 -14.67059,12.04427 -17.24906,3.47945z" fill="#7cbf2e"/><path d="M238.68965,194.51599c-1.51151,-1.60591 -3.64542,-3.92554 -6.04606,-6.8697c-2.40065,-2.94416 -5.06802,-6.42361 -7.64648,-10.34915c-2.57846,-3.92554 -5.06802,-8.38638 -6.66845,-13.20409c-0.80021,-2.40886 -1.24478,-4.99614 -1.24478,-7.49422c0.08891,-2.49808 0.53347,-4.90692 1.06695,-7.22656c1.06695,-4.55005 2.66738,-8.74325 4.08998,-12.2227c1.51151,-3.56867 2.93412,-6.33439 3.91216,-8.29717c0.97804,-1.96277 1.60042,-3.03338 1.60042,-3.03338c0,0 -2.40065,4.46084 -5.15694,11.41975c-1.42261,3.47945 -2.8452,7.67265 -3.91216,12.2227c-0.44457,2.31964 -0.88913,4.72849 -0.97804,7.13735c0,2.49808 0.44457,4.90692 1.24478,7.31578c1.51151,4.72849 4.00107,9.18934 6.49062,13.11487c2.48956,3.92554 5.15694,7.49422 7.46867,10.43836c4.71237,5.88831 8.17997,9.54619 8.17997,9.54619c0,0 -0.88913,-0.89217 -2.40065,-2.49808z" fill="#519b3d"/><path d="M215.39454,113.23947c-1.24478,0.26765 -2.93412,0.71374 -4.97911,1.24904c-2.04499,0.5353 -4.44564,1.24904 -6.93519,2.05199c-2.48956,0.71374 -5.15694,1.69512 -7.82431,2.67651c-2.57846,0.98139 -5.24585,2.05199 -7.64649,3.12258c-2.40065,1.0706 -4.62345,2.14121 -6.49062,3.12259c-1.86716,0.98139 -3.4676,1.78434 -4.53454,2.40886c-1.06695,0.62452 -1.68934,0.98139 -1.68934,0.98139c0,0 0.53347,-0.35687 1.60042,-1.0706c1.06695,-0.62452 2.57846,-1.60591 4.44564,-2.58729c1.86716,-0.98139 4.08998,-2.23042 6.49062,-3.30102c2.40065,-1.0706 4.97911,-2.23042 7.64649,-3.2118c2.66738,-0.98139 5.33476,-1.87356 7.91323,-2.67651c2.57846,-0.80295 4.97911,-1.42747 7.0241,-1.87356c2.1339,-0.5353 3.82324,-0.80295 5.06802,-1.0706c1.15587,-0.26765 1.86717,-0.35687 1.86717,-0.44608c0,0 -0.7113,0.17843 -1.95608,0.62452z" fill="#519b3d"/><path d="M216.01692,105.03152c-1.24478,-0.26765 -3.11194,-0.62452 -5.33476,-1.0706c-2.1339,-0.44608 -4.80128,-0.80295 -7.55757,-1.24904c-2.8452,-0.44608 -5.77932,-0.80295 -8.80235,-1.0706c-1.51151,-0.17843 -2.93412,-0.26765 -4.44564,-0.35687c-1.51151,-0.17843 -2.93412,-0.17843 -4.35672,-0.26765c-1.42261,-0.08922 -2.75629,-0.08922 -4.08998,-0.08922c-1.33369,0 -2.48956,0 -3.64542,0c-1.15587,0 -2.22282,0 -3.11194,0c-0.97804,0 -1.77825,0.08922 -2.40065,0.08922c-1.33369,0.08922 -2.04499,0.08922 -2.04499,0.08922c0,0 0.7113,-0.08922 2.04499,-0.17843c0.7113,0 1.51151,-0.08922 2.40065,-0.17843c0.97804,-0.08922 1.95608,-0.17843 3.11194,-0.17843c1.15587,-0.08922 2.31173,-0.08922 3.64542,-0.08922c1.33369,0.08922 2.66738,0 4.08998,0.08922c1.42261,0 2.8452,0.08922 4.35672,0.17843c1.42261,0.08922 2.93412,0.17843 4.44564,0.35687c3.02303,0.26765 6.04606,0.62452 8.80235,1.0706c1.42261,0.17843 2.75629,0.44608 4.00107,0.71374c1.24478,0.26765 2.48956,0.44608 3.5565,0.71374c2.22282,0.5353 4.08998,0.98139 5.33476,1.33825c1.24478,0.26765 1.95608,0.5353 1.95608,0.5353c0,0 -0.7113,-0.26765 -1.95608,-0.44608z" fill="#519b3d"/><path d="M223.30776,95.66376c-1.68934,-0.71374 -4.26781,-1.60591 -7.29084,-2.58729c-1.60042,-0.44608 -3.20086,-0.98139 -4.97911,-1.51669c-1.77825,-0.62452 -3.64542,-1.0706 -5.60149,-1.60591c-1.86716,-0.44608 -3.91216,-0.98139 -5.95715,-1.42747c-2.04499,-0.44608 -4.08998,-0.89217 -6.22389,-1.24904c-0.97804,-0.26765 -2.04499,-0.44608 -3.11194,-0.62452c-1.06695,-0.08922 -2.04499,-0.26765 -3.11194,-0.44608c-1.06695,-0.17843 -2.13391,-0.35687 -3.11194,-0.44608c-0.97804,-0.08922 -2.04499,-0.26765 -3.02303,-0.35687c-0.97804,-0.17843 -1.95608,-0.26765 -2.93412,-0.35687c-0.97804,-0.08922 -1.95608,-0.08922 -2.8452,-0.17843c-0.88913,-0.08922 -1.77825,-0.08922 -2.66738,-0.17843c-0.88913,-0.08922 -1.68934,-0.08922 -2.48956,-0.08922c-1.60042,0 -3.02303,-0.08922 -4.35672,-0.08922c-1.33369,0 -2.40065,0.08922 -3.37868,0.08922c-1.86716,0.08922 -2.93412,0.08922 -2.93412,0.08922c0,0 1.06695,-0.08922 2.93412,-0.17843c0.97804,0 2.04499,-0.08922 3.37868,-0.17843c1.24478,0 2.75629,0 4.35672,0c0.80021,0 1.60042,-0.08922 2.48956,0c0.88913,0.08922 1.77825,0.08922 2.66738,0.17843c0.97804,0.08922 1.86716,0.08922 2.8452,0.17843c0.97804,0 1.95608,0.17843 2.93412,0.26765c0.97804,0.17843 1.95608,0.26765 3.02303,0.35687c1.06695,0.08922 2.04499,0.26765 3.11194,0.44608c0.97804,0.08922 2.04499,0.26765 3.11194,0.44608c1.06695,0.26765 2.13391,0.44608 3.20086,0.62452c2.04499,0.35687 4.1789,0.89217 6.22389,1.33825c2.1339,0.44608 4.08998,1.0706 6.04606,1.51669c1.86717,0.62452 3.73433,1.15982 5.51258,1.69512c1.68934,0.5353 3.37868,1.0706 4.8902,1.60591c1.51151,0.5353 2.8452,1.0706 4.08998,1.51669c1.15587,0.44608 2.22282,0.89217 3.11194,1.24904c1.68934,0.71374 2.66738,1.15982 2.66738,1.15982c0,0 -0.97804,-0.44608 -2.57846,-1.24904z" fill="#519b3d"/><path d="M214.94997,120.64447c-0.53347,1.0706 -1.15587,2.49808 -1.68934,3.92554c-0.53347,1.42747 -1.06695,2.94416 -1.51151,4.01475c-0.26674,0.5353 -0.44457,0.98139 -0.53347,1.33825c-0.08891,0.35687 -0.17783,0.5353 -0.17783,0.5353c0,0 0,-0.17843 0.08891,-0.5353c0.08891,-0.35687 0.08891,-0.89217 0.26674,-1.42747c0.26674,-1.15982 0.7113,-2.67651 1.33369,-4.10397c0.62239,-1.42747 1.33369,-2.85494 1.95608,-3.83632c0.26674,-0.5353 0.62239,-0.89217 0.80021,-1.15982c0.17783,-0.26765 0.35565,-0.35687 0.35565,-0.35687c0,0 -0.44457,0.62452 -0.88912,1.60591z" fill="#519b3d"/><path d="M215.03888,104.05014c-0.17783,-0.17843 -0.35565,-0.44608 -0.62238,-0.71374c-0.17783,-0.26765 -0.53347,-0.5353 -0.88913,-0.80295c-0.35565,-0.26765 -0.7113,-0.5353 -1.15587,-0.80295c-0.44457,-0.26765 -0.97804,-0.5353 -1.42261,-0.80295c-0.53347,-0.26765 -1.06695,-0.5353 -1.60042,-0.80295c-0.62238,-0.17843 -1.15587,-0.44608 -1.68934,-0.71374c-0.53347,-0.26765 -1.15587,-0.44608 -1.68934,-0.71374c-0.62238,-0.26765 -1.15587,-0.44608 -1.68934,-0.62452c-1.06695,-0.44608 -2.04499,-0.80295 -2.93412,-1.0706c-1.77825,-0.62452 -2.93412,-0.98139 -2.93412,-0.98139c0,0 0.26674,0.08922 0.80021,0.17843c0.44457,0.08922 1.24478,0.17843 2.13391,0.44608c0.88913,0.26765 1.95608,0.5353 3.02303,0.89217c0.53347,0.17843 1.15587,0.35687 1.68934,0.5353c0.53347,0.17843 1.15587,0.35687 1.68934,0.62452c0.62238,0.26765 1.15587,0.5353 1.68934,0.80295c0.53347,0.35687 1.06695,0.62452 1.60042,0.89217c0.53347,0.26765 0.97804,0.5353 1.42261,0.89217c0.44457,0.35687 0.80021,0.71374 1.15587,0.98139c0.35565,0.26765 0.62239,0.62452 0.88912,0.89217c0.17783,0.26765 0.35565,0.5353 0.53347,0.80295c0.26674,0.5353 0.35565,0.80295 0.35565,0.80295c0,0 -0.08891,-0.26765 -0.35565,-0.71374z" fill="#519b3d"/><path d="M225.7084,93.52255c0.17783,0.5353 0.35565,1.15982 0.35565,1.87356c0,0.71374 0,1.51669 -0.35565,2.23042c-0.08891,0.17843 -0.26674,0.35687 -0.35565,0.5353c-0.08891,0.17843 -0.17783,0.26765 -0.26674,0.44608c-0.17783,0.26765 -0.26674,0.62452 -0.35565,0.89217c-0.17783,0.62452 0,1.24904 0.17783,1.69512c0.26674,0.44608 0.53347,0.80295 0.80021,0.98139c0.26674,0.17843 0.44457,0.17843 0.44457,0.17843c0,0 -0.26674,0 -0.53347,-0.08922c-0.26674,-0.08922 -0.7113,-0.35687 -0.97804,-0.89217c-0.26674,-0.5353 -0.44457,-1.24904 -0.35565,-1.96277c0.08891,-0.35687 0.26674,-0.71374 0.44457,-1.0706c0.17783,-0.17843 0.26674,-0.26765 0.35565,-0.44608c0.08891,-0.17843 0.17783,-0.26765 0.26674,-0.44608c0.26674,-0.62452 0.35565,-1.33825 0.35565,-1.96277c0,-0.62452 -0.08891,-1.24904 -0.17783,-1.78434c-0.17783,-1.0706 -0.35565,-1.78434 -0.35565,-1.78434c0,0 0.35565,0.62452 0.53347,1.60591z" fill="#519b3d"/><path d="M182.49686,134.38386c-0.53347,0.17843 -1.24478,0.5353 -2.13391,1.15982c-0.88913,0.62452 -1.95608,1.42747 -3.02303,2.40886c-1.06695,1.0706 -2.22282,2.23042 -3.4676,3.65788c-2.40065,2.76573 -4.80128,6.33439 -7.20193,10.25993c-1.24478,1.96277 -2.40065,4.01475 -3.5565,6.15596c-1.24478,2.05199 -2.31173,4.2824 -3.4676,6.42361c-2.31173,4.37162 -4.44564,8.74325 -6.40172,12.93644c-2.04499,4.19319 -3.82324,8.02952 -5.33476,11.41975c-1.51151,3.39023 -2.75629,6.15596 -3.64542,8.11873c-0.80021,1.96277 -1.33369,3.12258 -1.33369,3.12258c0,0 0.44457,-1.15982 1.24478,-3.12258c0.80021,-1.96277 2.04499,-4.81771 3.4676,-8.20795c0.7113,-1.69512 1.51151,-3.47945 2.40065,-5.44222c0.88913,-1.96277 1.77825,-4.01475 2.75629,-6.06674c1.95608,-4.19319 4.08998,-8.65404 6.3128,-13.02566c0.53347,-1.15982 1.06695,-2.23042 1.68934,-3.30102c0.62238,-1.0706 1.15587,-2.14121 1.77825,-3.2118c1.15587,-2.14121 2.31173,-4.19319 3.5565,-6.15596c1.15587,-1.96277 2.40065,-3.83632 3.64542,-5.53144c1.24478,-1.69512 2.48956,-3.2118 3.73433,-4.63927c2.48956,-2.76573 4.80128,-4.72849 6.66845,-5.88831c0.88913,-0.62452 1.68934,-0.98139 2.22282,-1.15982c0.53347,-0.17843 0.80021,-0.26765 0.80021,-0.26765c0,0 -0.35565,0 -0.7113,0.35687z" fill="#519b3d"/><path d="M111.8113,149.10463c-0.08891,-0.35687 -0.35565,-0.80295 -0.62238,-1.24904c-0.26674,-0.44608 -0.53347,-0.98139 -0.97804,-1.51669c-0.35565,-0.5353 -0.80021,-1.0706 -1.33369,-1.60591c-0.53347,-0.44608 -1.06695,-1.0706 -1.77825,-1.51669c-0.62238,-0.5353 -1.42261,-0.89217 -2.13391,-1.33825c-0.35565,-0.26765 -0.80021,-0.35687 -1.15587,-0.5353c-0.44457,-0.08922 -0.80021,-0.35687 -1.24478,-0.44608l-1.24478,-0.35687c-0.35565,-0.08922 -0.80021,-0.26765 -1.24478,-0.26765c-0.44457,-0.08922 -0.80021,-0.08922 -1.24478,-0.17843l-0.62238,-0.08922c-0.17783,0 -0.44457,0 -0.62238,0c-0.88913,0 -1.60042,-0.08922 -2.40065,-0.08922c-0.80021,0.08922 -1.51151,0.08922 -2.13391,0.17843c-0.35565,0 -0.7113,0.08922 -0.97804,0.08922c-0.35565,0.08922 -0.62238,0.08922 -0.88913,0.17843c-0.53347,0.08922 -1.06695,0.17843 -1.42261,0.26765c-0.80021,0.08922 -1.24478,0.17843 -1.24478,0.17843c0,0 0.44457,-0.08922 1.15587,-0.26765c0.35565,-0.08922 0.80021,-0.26765 1.33369,-0.35687c0.17783,0 0.53347,-0.08922 0.80021,-0.17843c0.35565,0 0.62238,0 0.97804,-0.08922c0.62238,-0.08922 1.33369,-0.17843 2.13391,-0.26765c0.7113,0 1.60042,0 2.40065,0c0.17783,0 0.44457,0 0.62238,0l0.62238,0.08922c0.44457,0.08922 0.88913,0.08922 1.33369,0.17843c0.44457,0 0.88913,0.17843 1.33369,0.26765l1.33369,0.35687c0.44457,0.17843 0.80021,0.35687 1.24478,0.5353c0.44457,0.17843 0.88913,0.26765 1.24478,0.5353c0.7113,0.44608 1.51151,0.89217 2.13391,1.42747c0.7113,0.5353 1.24478,1.15982 1.77825,1.69512c0.44457,0.5353 0.97804,1.15982 1.33369,1.69512c0.35565,0.5353 0.62238,1.15982 0.88913,1.60591c0.17783,0.44608 0.35565,0.89217 0.53347,1.24904c0.26674,0.71374 0.35565,1.15982 0.35565,1.15982c0,0 -0.08891,-0.44608 -0.26674,-1.33825z" fill="#7d9950"/><path d="M169.60451,111.63357c-1.06695,0.26765 -2.57846,0.71374 -4.35672,1.24904c-0.88913,0.26765 -1.77825,0.62452 -2.75629,1.0706c-0.97804,0.44608 -1.86716,1.0706 -2.8452,1.69512c-1.86716,1.24904 -3.73433,2.85494 -5.51258,4.63927c-1.77825,1.69512 -3.4676,3.56867 -5.06802,5.26379c-1.51151,1.69512 -3.02303,3.39023 -4.26781,4.72849c-2.48956,2.76573 -4.1789,4.63927 -4.1789,4.63927c0,0 1.51151,-1.96277 3.91216,-4.81771c1.24478,-1.42747 2.57846,-3.12258 4.1789,-4.81771c1.51151,-1.78434 3.20086,-3.56867 4.97911,-5.35301c1.86716,-1.69512 3.73433,-3.30102 5.69041,-4.63927c0.97804,-0.62452 1.95608,-1.24904 2.93412,-1.69512c0.97804,-0.44608 1.95608,-0.71374 2.8452,-0.98139c1.77825,-0.5353 3.28977,-0.80295 4.35672,-0.98139c1.06695,-0.17843 1.68934,-0.26765 1.68934,-0.26765c0,0 -0.62238,0.08922 -1.60042,0.26765z" fill="#519b3d"/><path d="M83.44816,145.08988c1.15587,-1.0706 2.8452,-2.67651 4.8902,-4.55005c2.04499,-1.87356 4.44564,-4.01475 7.0241,-6.33439c2.57846,-2.31964 5.33476,-4.72849 8.09105,-7.13735c2.75629,-2.40886 5.60149,-4.81771 8.26888,-6.95891c2.66738,-2.14121 5.24585,-4.10397 7.46867,-5.79909c1.06695,-0.80295 2.13391,-1.60591 3.02303,-2.23042c0.88913,-0.62452 1.68934,-1.15982 2.40065,-1.60591c1.33369,-0.89217 2.13391,-1.33825 2.13391,-1.33825c0,0 -0.80021,0.5353 -2.13391,1.42747c-0.62238,0.44608 -1.42261,1.0706 -2.31173,1.69512c-0.88913,0.71374 -1.86716,1.51669 -2.93412,2.31964c-2.13391,1.69512 -4.62345,3.7471 -7.29084,5.97753c-2.66738,2.14121 -5.51258,4.55005 -8.26888,6.95891c-2.8452,2.31964 -5.60149,4.81771 -8.17997,7.04813c-2.57846,2.31964 -5.06802,4.46084 -7.11301,6.24518c-4.1789,3.65788 -6.93519,6.06674 -6.93519,6.06674c0,0 0.7113,-0.62452 1.86716,-1.78434z" fill="#519b3d"/><g><path d="M261.9229,181.4647c0,0 -28.29121,23.83392 -40.41465,20.10052c-19.66144,-6.0546 -26.91937,-17.09102 -26.91937,-17.09102c0,0 -15.62425,-25.58313 -13.25082,-29.14327c2.37342,-3.56014 7.71363,2.76979 13.25082,4.84416c5.5372,2.07675 5.84812,-6.49843 11.54196,-7.94622c7.31252,-1.85839 8.65113,5.36156 14.88136,6.84495c6.23024,1.48339 10.62819,-14.98342 14.61791,-0.9731c4.0633,14.26427 26.29278,23.36398 26.29278,23.36398" fill="#4c97ff"/><path d="M280.38885,201.56547c-54.84507,30.10925 -85.79926,-17.0934 -85.79926,-17.0934c39.59582,41.86482 33.06891,-39.83554 85.79926,-43.56419c31.02064,-2.19067 40.64488,33.91622 40.64488,33.91622" fill="#3d79cc"/></g></g><path d="M399.66949,142.27287c7.96521,-17.34261 20.38296,-40.3482 21.8711,-39.66465c1.49051,0.68355 -8.51347,24.7999 -16.48105,42.14251c-7.96521,17.34261 -10.87977,21.34657 -12.36791,20.66302c-1.48814,-0.68592 -0.98734,-5.7959 6.97786,-23.14088" fill="#b27b00" fill-rule="evenodd"/><g fill-rule="evenodd"><path d="M229.7738,215.74367c-21.56018,0 -8.50872,-89.74151 46.47875,-88.41002c56.01042,1.3576 76.34591,88.41002 76.34591,88.41002z" fill="#efab00"/><path d="M393.2132,179.7227c0,0 -111.90691,29.79833 -131.9932,32.75799c-26.89801,3.96362 -35.81259,-4.68514 -39.05943,-18.69071c-5.37106,-23.16699 13.34813,-23.93123 19.0847,-36.5887c5.73419,-12.65984 -7.75635,-33.25404 19.0847,-34.31733c22.45021,-0.89003 22.79199,-18.14008 33.8284,-19.40748c17.11713,-1.96519 20.85527,14.28564 33.51986,18.81413c11.96205,4.27691 18.25637,-6.66695 31.64485,-1.2864c11.47076,4.61156 11.98816,29.12191 27.09738,34.21765c24.62427,8.30698 6.79274,24.50085 6.79274,24.50085" fill="#59c059"/><path d="M247.80613,172.62331c-2.44225,-0.74051 -3.83783,-3.3489 -3.09494,-5.79115l1.48814,-4.90824c0.74051,-2.44225 3.34653,-3.83545 5.79115,-3.09494l13.06807,3.96124c2.44463,0.74288 3.83783,3.3489 3.09494,5.79353l-1.48814,4.90587c-0.74051,2.44463 -3.34653,3.83545 -5.79115,3.09494l-13.06807,-3.96124" fill="#e8511c"/><path d="M239.04962,169.15811c2.7057,0.68829 6.57438,3.63134 9.73104,4.41457c-8.16458,21.1472 -9.6361,41.41624 -19.74688,42.12827h-0.04747c-7.76109,-0.64082 -16.13928,-7.9035 -11.2975,-15.37978c2.87184,-4.4383 -1.59019,-9.94464 -0.37975,-15.0475c1.7326,-7.35761 9.25635,-8.94781 11.86712,-9.68357c2.84811,-0.78323 5.86236,-7.45255 9.87344,-6.43198" fill="#c18500"/><path d="M259.38938,161.08752c-2.39716,4.34336 -4.3671,8.8054 -6.0285,13.21997l-2.23102,-0.68829l-2.13608,-0.63845c1.7326,-4.41694 3.77374,-8.85524 6.2421,-13.14877z" fill="#c6431a"/><path d="M253.36089,174.30844c-7.85603,20.69625 -9.44623,40.3482 -19.201,41.36877c-1.13924,0 -1.70886,0 -3.6076,0.0712h-0.47468c-0.35601,0 -0.68829,-0.02373 -1.04431,-0.04747c10.11078,-0.71203 11.58231,-20.98106 19.74688,-42.12827c0.85443,0.21361 1.63766,0.26108 2.34969,0.04747z" fill="#a06b00"/><path d="M257.65797,145.4704c-2.30222,1.10364 -5.09099,0.12104 -6.19226,-2.18355l-0.42722,-0.88766c-1.10127,-2.30459 -0.11867,-5.08862 2.18355,-6.19226l6.37264,-3.04985c2.30459,-1.10364 5.09099,-0.12104 6.19226,2.18118l0.42722,0.89003c1.10127,2.30222 0.11867,5.09099 -2.18355,6.19226l-6.37264,3.04985" fill="#e8511c"/><path d="M322.33257,125.89084c-1.7326,0.02373 -3.51267,0.11867 -5.3402,0.26108c-31.85134,2.44463 -48.10929,17.70574 -57.60299,34.93679l-4.15349,-1.25791c9.58863,-16.73264 25.82285,-31.28172 56.89096,-33.67888c3.56014,-0.28481 6.95413,-0.35601 10.20572,-0.26108" fill="#4ba04b"/><path d="M377.30367,161.72028c-1.2769,-2.21203 -0.51266,-5.06726 1.70174,-6.34416l2.2595,-1.30538c2.21203,-1.2769 5.06726,-0.51029 6.34416,1.69937l4.82517,8.3592c1.2769,2.21203 0.51266,5.06489 -1.70174,6.34416l-2.2595,1.30301c-2.21203,1.2769 -5.06726,0.51266 -6.34416,-1.69937l-4.82517,-8.35682" fill="#e8511c"/><path d="M322.56445,129.69069c-2.40902,0.84969 -5.07438,-0.42247 -5.92406,-2.83149l-0.86867,-2.46124c-0.85206,-2.40902 0.4201,-5.07438 2.82912,-5.92644l9.09971,-3.21599c2.40902,-0.84969 5.07438,0.42484 5.92406,2.83149l0.87105,2.46124c0.85206,2.40902 -0.42247,5.07675 -2.83149,5.92644l-9.09971,3.21599" fill="#e8511c"/><path d="M233.33346,215.74367c21.36081,0 5.27612,-83.58011 83.66318,-89.59673c62.40205,-4.78957 77.84829,48.15201 81.09276,75.9543c0.84731,7.25556 -4.74685,13.64244 -12.0475,13.64244z" fill="#ffbf00"/><path d="M290.26359,123.75832c-0.68829,0 -1.37184,-0.29905 -1.84178,-0.87579c-0.82832,-1.01583 -0.67405,-2.51108 0.34177,-3.33703l12.46047,-10.14876c1.0182,-0.82358 2.51346,-0.67405 3.33941,0.34177c0.82832,1.01583 0.67405,2.51108 -0.34177,3.33941l-12.46047,10.14639c-0.44146,0.35839 -0.97073,0.53402 -1.49763,0.53402" fill="#ffbf00"/><path d="M371.17549,131.1869c-0.14715,0 -0.2943,-0.01187 -0.44383,-0.04272l-15.79039,-2.98814c-1.28877,-0.24209 -2.13371,-1.48576 -1.89162,-2.77216c0.24446,-1.28877 1.48814,-2.14795 2.77216,-1.89162l15.79276,2.99051c1.28877,0.24209 2.13371,1.48576 1.88925,2.77216c-0.21361,1.13924 -1.21045,1.93197 -2.32833,1.93197" fill="#ffbf00"/><path d="M236.29028,179.91043c-0.5269,0 -1.05855,-0.17326 -1.5,-0.53639l-12.45335,-10.15825c-1.01583,-0.82595 -1.16772,-2.32121 -0.33703,-3.33703c0.82832,-1.01345 2.32121,-1.1701 3.33941,-0.3394l12.45335,10.16063c1.01583,0.82595 1.16772,2.32121 0.33703,3.33703c-0.46756,0.57437 -1.15111,0.87342 -1.8394,0.87342" fill="#ffbf00"/><path d="M370.1974,173.13099c-3.87105,0 -3.87817,-6.01663 0,-6.01663c3.87343,0 3.87817,6.01663 0,6.01663" fill="#efab00"/><path d="M339.38466,178.51272c-3.87105,0 -3.87817,-6.01663 0,-6.01663c3.87343,0 3.87817,6.01663 0,6.01663" fill="#efab00"/><path d="M335.65982,203.28533c-3.87105,0 -3.87817,-6.01663 0,-6.01663c3.87343,0 3.88055,6.01663 0,6.01663" fill="#efab00"/><path d="M284.69862,206.29388c-3.87105,0 -3.87817,-6.01663 0,-6.01663c3.87105,0 3.87817,6.01663 0,6.01663" fill="#efab00"/><path d="M290.66113,153.98126c-3.87105,0 -3.87817,-6.01663 0,-6.01663c3.87105,0 3.87817,6.01663 0,6.01663" fill="#efab00"/><path d="M322.55732,140.34808c-3.87105,0 -3.87817,-6.019 0,-6.019c3.87105,0 3.87817,6.019 0,6.019" fill="#efab00"/><path d="M306.92146,182.1564c-3.87105,0 -3.87817,-6.01663 0,-6.01663c3.87105,0 3.87817,6.01663 0,6.01663" fill="#efab00"/><path d="M273.61592,184.52983c-3.87105,0 -3.87817,-6.01663 0,-6.01663c3.87105,0 3.87817,6.01663 0,6.01663" fill="#efab00"/><path d="M376.07305,197.56752c-3.87105,0 -3.87817,-6.01663 0,-6.01663c3.87105,0 3.87817,6.01663 0,6.01663" fill="#efab00"/><path d="M352.59847,150.97271c-3.87343,0 -3.88055,-6.01663 0,-6.01663c3.87105,0 3.87817,6.01663 0,6.01663" fill="#efab00"/><path d="M248.99402,172.98027l2.13608,0.64082c-0.71203,0.21123 -1.49526,0.16614 -2.34969,-0.04747c0.0712,-0.18987 0.14241,-0.37975 0.21361,-0.59336" fill="#4ba04b"/></g><g fill-rule="evenodd"><path d="M332.34543,174.75249c-0.44858,-5.74368 -3.7239,-12.03326 -13.52614,-12.03326c-0.33465,0 -0.66456,0 -0.9731,0.0451c12.84022,0.47468 13.71601,12.24686 12.12582,18.04039c-2.39716,8.75556 0.66456,12.57914 0.66456,16.54276c0,8.23341 -4.3671,10.34813 -3.91615,15.8521c0.40586,5.0103 1.92247,8.85524 2.15982,12.72392h-19.10606c-1.49526,-3.75238 -4.67327,-8.92407 -4.60207,-12.93753c0.14003,-7.45018 2.822,-7.56885 3.05934,-15.11871c0.23734,-7.56885 -4.74685,-11.39243 -4.74685,-17.96444c0,-1.47152 0.09494,-3.15665 0.37975,-4.89163c-7.71363,1.09177 -11.08389,-1.89637 -5.86236,-3.4652c6.40824,-1.94383 8.7342,-10.89164 17.34973,-10.93911c1.63766,0 2.82437,0.47231 3.5364,1.28165c0.71203,-0.80934 1.89874,-1.28165 3.5364,-1.28165c8.61553,0.04747 10.94386,8.99527 17.34973,10.93911c5.57755,1.66377 1.40269,4.96045 -7.42882,3.2065" fill="#efab00"/><path d="M318.83044,162.72777c13.64244,0 14.57994,12.17092 12.96601,18.09023c-2.38766,8.76268 0.66931,12.58152 0.67168,16.53564c0.00712,8.23103 -4.36473,10.35999 -3.91852,15.84972c0.44383,5.46837 2.20728,9.5554 2.20966,13.78247c0,4.87264 -3.56251,7.41457 -7.47154,9.34179c-5.28087,2.59653 -10.06094,2.58466 -17.70099,0.72864c-9.53879,-2.31409 -11.23579,5.69147 -25.78962,0.87579c-13.69228,-4.53087 9.4035,-0.51029 13.32677,-3.92327c3.92327,-3.40824 7.27454,-4.00634 15.94229,-3.16615c8.66537,0.84494 -2.17406,-10.42645 -2.05301,-17.83865c0.12104,-7.45492 2.80064,-7.56647 3.0451,-15.1282c0.24209,-7.56647 -4.75159,-11.37582 -4.75159,-17.95495c0,-6.47945 1.70649,-17.19308 13.52377,-17.19308" fill="#ffffff"/><path d="M332.34543,174.75249c-1.32912,-0.26108 -2.77691,-0.6432 -4.2959,-1.16298c-4.79432,-1.61393 -7.78483,-4.1084 -9.16141,-6.48182c-1.37659,2.37342 -4.3671,4.86789 -9.15904,6.48182c-1.40269,0.47468 -2.75317,0.82832 -3.98972,1.11314c0.14478,-0.87817 0.33465,-1.78007 0.61946,-2.63213c1.44541,-4.91299 4.86552,-9.35129 12.46047,-9.35129c8.35208,0 11.95968,4.55697 13.12266,9.46996c0.18987,0.85206 0.33465,1.70886 0.40348,2.5633" fill="#e6e6e6"/><path d="M328.05048,171.12067c-4.79669,-1.61393 -7.78483,-4.10602 -9.16141,-6.50318c-1.37659,2.39716 -4.3671,4.88925 -9.16141,6.50318c-11.62977,3.91615 -18.13296,-0.11867 -11.72471,-2.06488c6.40824,-1.92247 8.7342,-10.87028 17.34735,-10.91775c1.64004,0 2.85048,0.47231 3.53877,1.28165c0.68829,-0.80934 1.89637,-1.28165 3.5364,-1.28165c8.61553,0.04747 10.94148,8.99527 17.34735,10.91775c6.41062,1.94621 -0.09494,5.98103 -11.72234,2.06488" fill="#ffffff"/><path d="M330.75547,226.97943c0,4.89163 -3.56014,7.42882 -7.47391,9.35129c-5.27137,2.58703 -10.06569,2.58703 -17.68438,0.73576c-9.54116,-2.32358 -11.25003,5.67486 -25.79911,0.85443c-6.81173,-2.25475 -4.5095,-2.37342 0,-2.37342c14.54909,4.82042 16.25795,-3.17801 25.79911,-0.87817c7.61869,1.85364 12.413,1.875 17.68438,-0.73339c3.65507,-1.78007 6.97549,-4.1084 7.40508,-8.35682c0.0451,0.47468 0.06883,0.92564 0.06883,1.40032" fill="#e6e6e6"/></g><g fill-rule="evenodd"><path d="M338.15713,112.93003c0.6337,2.63213 -8.28087,7.03483 -19.91065,9.83072c-11.6274,2.79589 -21.56967,2.9288 -22.201,0.29668c-0.6337,-2.63213 8.28087,-7.03483 19.91065,-9.83072c11.6274,-2.79589 21.5673,-2.9288 22.201,-0.29668" fill="#3d79cc"/><path d="M338.15713,112.93003c0,0 -16.8608,-2.43988 -30.01906,3.03324c-1.88925,0.76899 -3.70254,1.7326 -5.41853,2.94779c-1.92247,1.33624 -3.67881,2.95017 -5.2334,4.92011c-0.15427,0.10206 -0.32279,0.13291 -0.48893,0.11867c-0.84969,-0.08544 -1.60206,-1.63766 -1.49526,-2.72469l6.23024,-56.98115c0.27294,-2.52532 3.572,-3.32042 4.98182,-1.17722l31.239,48.04521z" fill="#4c97ff"/><path d="M333.26195,112.49901c0.20411,0.23972 -25.0586,-2.5894 -35.77698,11.32835c0,0 -1.16298,0.77611 -1.93671,-1.78244c-0.07595,-0.24921 -0.0807,-0.54351 -0.04984,-0.81883l6.23973,-56.99064c0.19225,-1.85127 2.02216,-2.77453 3.53165,-2.28086c0,0 -2.80301,27.9969 -1.21045,41.97874c1.46678,12.89481 7.00872,1.15823 29.2026,8.56569" fill="#4280d7"/><path d="M299.88568,81.04759c0.05222,0.01187 0.0807,0.02848 0.13766,0.06408l2.08861,1.50238l2.39953,-0.88766c0.78798,-0.28481 1.54985,0.46044 1.30064,1.25079l-0.76424,2.42801l1.58307,2.03877c0.49367,0.63845 0.03797,1.59969 -0.79035,1.60206l-2.55618,0.02373l-1.44541,2.12421c-0.4462,0.69304 -1.50238,0.55301 -1.76345,-0.23734l-0.82595,-2.43988l-0.15902,-0.05696z" fill="#e6ac00"/><path d="M329.80079,98.54661l-1.20333,0.77374l-0.13529,3.74052c-0.05459,1.21045 -1.46678,1.83703 -2.4019,1.08465l-2.89083,-2.40902l-3.60998,1.03007c-1.16535,0.32753 -2.19542,-0.81883 -1.75633,-1.94858l1.39083,-3.47707l-2.08387,-3.1163c-0.6788,-1.0087 0.09494,-2.36393 1.31013,-2.28798l3.74526,0.25396l1.93197,-2.43513z" fill="#ffbf00"/><path d="M308.78721,113.02283l-1.13687,1.84178l0.48893,1.0989c-1.88925,0.76662 -3.70254,1.7326 -5.4209,2.94542c-0.13054,-0.1068 -0.2326,-0.28481 -0.23497,-0.49842l-0.16851,-2.16456l-1.875,-1.06804c-0.6076,-0.34652 -0.54589,-1.22231 0.07832,-1.49526l1.9913,-0.85206l0.4462,-2.10048c0.14003,-0.6788 1.0182,-0.9019 1.46915,-0.37975l1.40981,1.64004l2.12421,-0.24209c0.69779,-0.07358 1.17247,0.68829 0.82832,1.27453" fill="#e6ac00"/><path d="M309.56949,100.25049c0.24921,1.04905 -0.39636,2.10048 -1.44541,2.35206c-1.04905,0.24921 -2.10285,-0.39874 -2.35206,-1.44779c-0.25158,-1.04905 0.39636,-2.10048 1.44541,-2.34969c1.04905,-0.25158 2.10285,0.39636 2.35206,1.44541" fill="#ffbf00"/><path d="M311.90136,71.06046c-0.12579,0.0807 -0.2587,0.13529 -0.39874,0.16851c-1.01583,0.24209 -2.03877,-0.36788 -2.28086,-1.38371c-0.17563,-0.73813 0.09019,-1.46203 0.6432,-1.91061z" fill="#ffbf00"/><path d="M305.83087,89.04745l-2.23102,0.02373c0.04747,-2.37342 0.11867,-4.77058 0.23734,-7.09654l0.66456,-0.23734c0.80696,-0.28481 1.56646,0.45095 1.30538,1.23418l-0.7595,2.44463l1.59019,2.01741c0.47468,0.64082 0.02373,1.61393 -0.80696,1.61393" fill="#ffbf00"/></g></g></g></svg>